<svg xmlns="http://www.w3.org/2000/svg" width="24" height="24" viewBox="0 0 24 24">
  <g id="icon-consulting" transform="translate(-26 -5032)">
    <path id="Icon_awesome-door-closed" data-name="Icon awesome-door-closed" d="M23.4,16.8H19.2V1.9A1.857,1.857,0,0,0,17.4,0H6.6A1.857,1.857,0,0,0,4.8,1.9V16.8H.6a.6.6,0,0,0-.6.6v1.2a.6.6,0,0,0,.6.6H23.4a.6.6,0,0,0,.6-.6V17.4A.6.6,0,0,0,23.4,16.8Zm-7.8-6a1.2,1.2,0,1,1,1.2-1.2A1.2,1.2,0,0,1,15.6,10.8Z" transform="translate(26 5034)" fill="#a2a2a2"/>
    <rect id="사각형_1919" data-name="사각형 1919" width="24" height="24" transform="translate(26 5032)" fill="none"/>
  </g>
</svg>
