<svg xmlns="http://www.w3.org/2000/svg" width="24" height="24" viewBox="0 0 24 24">
  <g id="icon-youtube" transform="translate(-216 -4285)">
    <path id="Icon_awesome-youtube" data-name="Icon awesome-youtube" d="M18.674,6.378a2.205,2.205,0,0,0-1.591-1.519A56.344,56.344,0,0,0,10.05,4.5a56.344,56.344,0,0,0-7.032.359A2.205,2.205,0,0,0,1.426,6.378a21.357,21.357,0,0,0-.376,4.135,21.357,21.357,0,0,0,.376,4.135,2.175,2.175,0,0,0,1.591,1.494,56.345,56.345,0,0,0,7.032.359,56.345,56.345,0,0,0,7.032-.359,2.175,2.175,0,0,0,1.591-1.494,21.357,21.357,0,0,0,.376-4.135,21.357,21.357,0,0,0-.376-4.135ZM8.209,13.05V7.975l4.7,2.538-4.7,2.538Z" transform="translate(217.95 4286.5)"/>
    <rect id="사각형_1910" data-name="사각형 1910" width="24" height="24" transform="translate(216 4285)" fill="none"/>
  </g>
</svg>
