<svg xmlns="http://www.w3.org/2000/svg" width="42" height="40" viewBox="0 0 42 40">
  <g id="half" transform="translate(-155.648 -3.754)">
    <path id="half-2" data-name="half" d="M19.288,1.061a1.912,1.912,0,0,1,3.423,0l5.455,11.015,12.2,1.777A1.9,1.9,0,0,1,41.421,17.1L32.6,25.667l2.083,12.1a1.908,1.908,0,0,1-2.77,2.006L21,34.059,10.091,39.777a1.908,1.908,0,0,1-2.77-2.006L9.4,25.667.579,17.1a1.9,1.9,0,0,1,1.056-3.246l12.2-1.777Z" transform="translate(155.648 3.754)" fill="#e8e8e8"/>
    <path id="교차_1" data-name="교차 1" d="M3683.2,640.013l2.048-11.94-8.677-8.452a1.876,1.876,0,0,1,1.038-3.2l11.994-1.753,5.363-10.866a1.855,1.855,0,0,1,1.683-1.046v33.6l-10.727,5.641a1.872,1.872,0,0,1-2.724-1.979Z" transform="translate(-3520 -599)" fill="#244d4d"/>
  </g>
</svg>
