<svg xmlns="http://www.w3.org/2000/svg" width="24" height="24" viewBox="0 0 24 24">
  <g id="icon-vest" transform="translate(-175 -698)">
    <rect id="사각형_1872" data-name="사각형 1872" width="24" height="24" transform="translate(175 698)" fill="#fff"/>
    <g id="vest" transform="translate(83 682)">
      <path id="패스_1978" data-name="패스 1978" d="M111.866,26.9c-1.384-1.23-1.929-3.057-1.622-5.429a12.653,12.653,0,0,1,.918-3.3.4.4,0,0,0-.184-.527l-3.2-1.6A.4.4,0,0,0,107.6,16h-7.2a.4.4,0,0,0-.179.042l-3.2,1.6a.4.4,0,0,0-.184.527c.027.057,2.635,5.764-.7,8.732a.4.4,0,0,0-.134.3V36a.4.4,0,0,0,.147.31l4.4,3.6a.4.4,0,0,0,.536-.027L104,36.966l2.917,2.917a.4.4,0,0,0,.536.027l4.4-3.6A.4.4,0,0,0,112,36V27.2a.4.4,0,0,0-.134-.3ZM104,23.927c-1.5-1.033-2.37-3.657-2.813-5.527h5.626c-.1.4-.212.844-.35,1.294C105.819,21.8,104.97,23.257,104,23.927Zm2.989-6.327h-5.977c-.064-.318-.112-.591-.147-.8h6.27C107.1,17.009,107.053,17.282,106.989,17.6ZM96.8,32h2.4v.8H96.8Zm3.973,7.061L96.8,35.81V33.6h2.8a.4.4,0,0,0,.4-.4V31.6a.4.4,0,0,0-.4-.4H96.8V27.376a6.728,6.728,0,0,0,1.747-6.028,13.553,13.553,0,0,0-.832-3.158L100.086,17c.25,1.514,1.11,5.67,3.2,7.388l-.712.474a.4.4,0,0,0-.178.333v10a.4.4,0,0,0,.117.283l.917.917Zm6.454,0-2.944-2.944L103.2,35.034v-9.62l1.016-.677c2.455-1.423,3.429-6.105,3.7-7.733l2.371,1.185a13.552,13.552,0,0,0-.831,3.158,6.728,6.728,0,0,0,1.747,6.028V31.2h-2.8a.4.4,0,0,0-.4.4v1.6a.4.4,0,0,0,.4.4h2.8v2.21ZM111.2,32v.8h-2.4V32Z" transform="translate(0 0)"/>
      <ellipse id="타원_416" data-name="타원 416" cx="0.26" cy="0.347" rx="0.26" ry="0.347" transform="translate(104.112 26.413)"/>
      <circle id="타원_417" data-name="타원 417" cx="0.26" cy="0.26" r="0.26" transform="translate(104.112 29.841)"/>
      <circle id="타원_418" data-name="타원 418" cx="0.26" cy="0.26" r="0.26" transform="translate(104.112 33.054)"/>
    </g>
  </g>
</svg>
