<svg xmlns="http://www.w3.org/2000/svg" width="24" height="24" viewBox="0 0 24 24">
  <g id="icon-shoes" transform="translate(-32 -756)">
    <rect id="사각형_1874" data-name="사각형 1874" width="24" height="24" transform="translate(32 756)" fill="#fff"/>
    <path id="shoes" d="M39.166,149.846a2.736,2.736,0,0,0-2.476-.226,6.463,6.463,0,0,1-4.535-.384,26.206,26.206,0,0,1-7.082-5.124.4.4,0,0,0-.572.026,7.627,7.627,0,0,1-2.108,1.522,6.964,6.964,0,0,1-5.467.365.4.4,0,0,0-.506.253A10.113,10.113,0,0,0,16,149.2a8.528,8.528,0,0,0,.8,3.291V154.8a.4.4,0,0,0,.4.4h6.4a.4.4,0,0,0,.4-.4v-.4h1.951A49.182,49.182,0,0,0,32,155.6a24.251,24.251,0,0,0,7.779-2.042A.4.4,0,0,0,40,153.2v-1.6A2.363,2.363,0,0,0,39.166,149.846Zm-2.256.543a2.019,2.019,0,0,1,1.77.093,1.413,1.413,0,0,1,.493.885,23.2,23.2,0,0,1-4.373,1.4v-2.108A6.911,6.911,0,0,0,36.91,150.389Zm-4.944-.366a8.663,8.663,0,0,0,2.034.571v2.346a12.189,12.189,0,0,1-2,.265,43.576,43.576,0,0,1-5.471-1.082,1.844,1.844,0,0,1,.291-.425,2,2,0,0,1,1.915-.5,3.227,3.227,0,0,0,3.231-1.176Zm-14.89-3.115a7.825,7.825,0,0,0,5.7-.545,8.774,8.774,0,0,0,2.031-1.4q.447.412.877.791l-.771.771a.4.4,0,1,0,.566.566l.811-.811q.466.4.913.756l-.689.689a.4.4,0,0,0,.566.566l.757-.758q.492.377.963.706l-.686.686a.4.4,0,0,0,.566.566l.8-.8a16.778,16.778,0,0,0,1.73.991,2.444,2.444,0,0,1-2.343.727,2.736,2.736,0,0,0-2.665.779,2.7,2.7,0,0,0-.495.816H17.457a7.624,7.624,0,0,1-.657-2.8A9.908,9.908,0,0,1,17.076,146.908ZM39.2,152.954A23.9,23.9,0,0,1,32,154.8a48.368,48.368,0,0,1-5.9-1.188.4.4,0,0,0-.1-.012H23.6a.4.4,0,0,0-.4.4v.4H17.6v-1.6h8.351A49.187,49.187,0,0,0,32,154a24.718,24.718,0,0,0,7.2-1.773Z" transform="translate(16 617.995)"/>
  </g>
</svg>
