<svg xmlns="http://www.w3.org/2000/svg" width="24" height="24" viewBox="0 0 24 24">
  <g id="icon-dad" transform="translate(-289 -290)">
    <rect id="frame" width="24" height="24" transform="translate(289 290)" fill="none"/>
    <g id="dad" transform="translate(249.493 290)">
      <path id="패스_1930" data-name="패스 1930" d="M47.589,315.908l-3.952,1.31a3.1,3.1,0,0,0-2.13,2.951v5.72h6.082Z" transform="translate(0 -301.889)" fill="#a2a2a2"/>
      <path id="패스_1931" data-name="패스 1931" d="M354.95,317.218,351,315.908v9.981h6.082v-5.72A3.1,3.1,0,0,0,354.95,317.218Z" transform="translate(-295.573 -301.889)" fill="#a2a2a2"/>
      <path id="패스_1932" data-name="패스 1932" d="M191,322.072v2.654l1.772-2.037A7.38,7.38,0,0,1,191,322.072Z" transform="translate(-142.581 -307.122)" fill="#a2a2a2"/>
      <path id="패스_1933" data-name="패스 1933" d="M273.545,365.374,271,362.448v7.612h2.545Z" transform="translate(-218.923 -346.06)" fill="#a2a2a2"/>
      <path id="패스_1934" data-name="패스 1934" d="M193.546,362.449,191,365.375v4.686h2.545Z" transform="translate(-142.609 -346.061)" fill="#a2a2a2"/>
      <path id="패스_1935" data-name="패스 1935" d="M287.964,322.073a7.384,7.384,0,0,1-1.772.617l1.772,2.037Z" transform="translate(-233.37 -307.123)" fill="#a2a2a2"/>
      <path id="패스_1936" data-name="패스 1936" d="M144.807,113.239c2.755,0,5-2.653,5-5.914V103.51c0-.047,0-.093,0-.14a3.547,3.547,0,0,1-1.263.229,4.808,4.808,0,0,1-2.487-.769,7.126,7.126,0,0,1-3.12.8q-.148.005-.293,0a9.968,9.968,0,0,1-2.822-.427q-.006.15-.006.3v3.816C139.81,110.586,142.051,113.239,144.807,113.239Zm1.639-7.726H147.9v1.527h-1.451Zm-4.733,0h1.451v1.527h-1.451Z" transform="translate(-93.3 -98.285)" fill="#a2a2a2"/>
      <path id="패스_1937" data-name="패스 1937" d="M145.379,4.1a12.2,12.2,0,0,0,3.412.4,7.046,7.046,0,0,0,5.976-3.155A5.91,5.91,0,0,0,145.379,4.1Z" transform="translate(-99.364)" fill="#a2a2a2"/>
      <path id="패스_1938" data-name="패스 1938" d="M319.667,50.746a5.9,5.9,0,0,0-.85-1.748,8.486,8.486,0,0,1-1.712,1.768A3.72,3.72,0,0,0,319.667,50.746Z" transform="translate(-262.905 -46.504)" fill="#a2a2a2"/>
    </g>
  </g>
</svg>
