<svg xmlns="http://www.w3.org/2000/svg" width="24" height="24" viewBox="0 0 24 24">
  <g id="icon-shirt" transform="translate(-103 -698)">
    <rect id="사각형_1873" data-name="사각형 1873" width="24" height="24" transform="translate(103 698)" fill="#fff"/>
    <g id="shirt_1_" data-name="shirt (1)" transform="translate(57 682)">
      <path id="패스_1979" data-name="패스 1979" d="M66.584,19.21l-2.775-1.156-2.354-1.961A.4.4,0,0,0,61.2,16H55.6a.4.4,0,0,0-.256.093L52.99,18.054,50.215,19.21A3.591,3.591,0,0,0,48,22.533V39.6a.4.4,0,0,0,.4.4h3.2a.4.4,0,0,0,.4-.4V39a18.589,18.589,0,0,0,6.4,1,18.593,18.593,0,0,0,6.4-1v.6a.4.4,0,0,0,.4.4h3.2a.4.4,0,0,0,.4-.4V22.533A3.591,3.591,0,0,0,66.584,19.21ZM58.4,18.634,56.566,16.8h3.669Zm-.541.59-1.486,1.783-2.581-2.58,1.783-1.486Zm3.366-2.283,1.783,1.486-2.581,2.581-1.486-1.783ZM51.2,39.2H48.8v-.8h2.4ZM52,38V24.4a.4.4,0,1,0-.8,0V37.6H48.8V22.533a2.793,2.793,0,0,1,1.723-2.585l2.583-1.076,3.011,3.011A.4.4,0,0,0,56.4,22h.018a.4.4,0,0,0,.289-.144L58,20.305V39.2a16.994,16.994,0,0,1-6-1.058Zm16,1.2H65.6v-.8H68Zm0-1.6H65.6V24.4a.4.4,0,0,0-.8,0V38.14a16.9,16.9,0,0,1-6,1.057V20.305l1.293,1.551a.4.4,0,0,0,.289.144H60.4a.4.4,0,0,0,.283-.117l3.011-3.011,2.583,1.076A2.793,2.793,0,0,1,68,22.533Z" transform="translate(0)"/>
      <ellipse id="타원_419" data-name="타원 419" cx="0.246" cy="0.493" rx="0.246" ry="0.493" transform="translate(59.604 23.433)"/>
      <ellipse id="타원_420" data-name="타원 420" cx="0.246" cy="0.493" rx="0.246" ry="0.493" transform="translate(59.604 27.507)"/>
      <ellipse id="타원_421" data-name="타원 421" cx="0.246" cy="0.493" rx="0.246" ry="0.493" transform="translate(59.604 31.582)"/>
      <ellipse id="타원_422" data-name="타원 422" cx="0.246" cy="0.493" rx="0.246" ry="0.493" transform="translate(59.604 36.173)"/>
    </g>
  </g>
</svg>
