<svg xmlns="http://www.w3.org/2000/svg" width="24" height="24" viewBox="0 0 24 24">
  <g id="icon-facebook" transform="translate(-188 -4284)">
    <path id="Icon_ionic-logo-facebook" data-name="Icon ionic-logo-facebook" d="M17.727,4.5H5.273a.773.773,0,0,0-.773.773V17.727a.773.773,0,0,0,.773.773H11.5V12.958H9.827V10.917H11.5V9.407a2.66,2.66,0,0,1,2.869-2.793c.773,0,1.6.058,1.8.084V8.587H14.88c-.879,0-1.046.416-1.046,1.028v1.3h2.093l-.273,2.042H13.833V18.5h3.894a.773.773,0,0,0,.773-.773V5.273A.773.773,0,0,0,17.727,4.5Z" transform="translate(188.5 4284.5)"/>
    <rect id="사각형_1909" data-name="사각형 1909" width="24" height="24" transform="translate(188 4284)" fill="none"/>
  </g>
</svg>
