<svg xmlns="http://www.w3.org/2000/svg" width="24" height="24" viewBox="0 0 24 24">
  <g id="icon-suspenders" transform="translate(-246 -756)">
    <rect id="사각형_1871" data-name="사각형 1871" width="24" height="24" transform="translate(246 756)" fill="#fff"/>
    <g id="suspenders" transform="translate(239.759 758)">
      <path id="패스_1984" data-name="패스 1984" d="M136.8,0h-8.669a.334.334,0,0,0-.334.334V2.067a.334.334,0,0,0,.09.228l2.332,2.5a.334.334,0,0,0,.525-.047l.183-.283,1.2,2.187V20.4a.334.334,0,0,0,.669,0V6.648L134,4.461l.183.283a.335.335,0,0,0,.251.151h.03a.334.334,0,0,0,.244-.106l2.332-2.5a.334.334,0,0,0,.09-.228V.334A.334.334,0,0,0,136.8,0Zm-.334,1.935-1.949,2.086-.254-.392h0l-.58-.9,1.686-.952a.334.334,0,1,0-.329-.582l-2,1.126a.334.334,0,0,0-.116.473l.664,1.026-1.126,2.045-1.126-2.045L132,2.8a.334.334,0,0,0-.116-.473l-2-1.126a.334.334,0,0,0-.329.582l1.686.952-.58.9v0l-.254.392-1.949-2.086V.669h8V1.935Z" transform="translate(-114.221)"/>
      <path id="패스_1985" data-name="패스 1985" d="M12.884,41.3V29.594a.334.334,0,0,0-.41-.326l-2.04.472a.334.334,0,0,0-.259.326v.18L8.5,30.634a.334.334,0,1,0,.151.652l1.523-.353V41.3a.334.334,0,0,0,0,.591v3.115a.334.334,0,0,0,.334.334h2.04a.334.334,0,0,0,.334-.334V41.9a.334.334,0,0,0,0-.591Zm-.669,3.372H10.843V41.935h1.371Zm0-3.411H10.843V30.333l1.371-.317Z" transform="translate(0 -27.955)"/>
      <path id="패스_1986" data-name="패스 1986" d="M60.256,405H58.831a.334.334,0,0,0-.334.334v1.294a1.047,1.047,0,1,0,2.094,0v-1.294A.334.334,0,0,0,60.256,405Zm-.334,1.628a.378.378,0,1,1-.756,0v-.96h.756v.96Z" transform="translate(-48.015 -386.941)"/>
      <path id="패스_1987" data-name="패스 1987" d="M353.211,30.634l-1.674-.387v-.18a.334.334,0,0,0-.259-.326l-2.04-.472a.334.334,0,0,0-.41.326V41.3a.334.334,0,0,0,0,.591v3.116a.334.334,0,0,0,.334.334h2.04a.334.334,0,0,0,.334-.334V41.9a.334.334,0,0,0,0-.591V30.933l1.523.353a.334.334,0,1,0,.151-.652Zm-2.343,14.043H349.5V41.935h1.371Zm0-3.411H349.5V30.015l1.371.317Z" transform="translate(-325.229 -27.956)"/>
      <path id="패스_1988" data-name="패스 1988" d="M361.306,405h-1.425a.334.334,0,0,0-.334.334v1.294a1.047,1.047,0,1,0,2.094,0v-1.294A.334.334,0,0,0,361.306,405Zm-.334,1.628a.378.378,0,1,1-.756,0v-.96h.756v.96Z" transform="translate(-335.641 -386.941)"/>
      <path id="패스_1989" data-name="패스 1989" d="M255.357,371.414a.357.357,0,1,0,.357.357A.357.357,0,0,0,255.357,371.414Z" transform="translate(-235.756 -354.852)"/>
      <path id="패스_1990" data-name="패스 1990" d="M255.357,293.828a.357.357,0,1,0,.357.357A.357.357,0,0,0,255.357,293.828Z" transform="translate(-235.756 -280.726)"/>
      <path id="패스_1991" data-name="패스 1991" d="M255.357,216.242a.357.357,0,1,0,.357.357A.357.357,0,0,0,255.357,216.242Z" transform="translate(-235.756 -206.6)"/>
    </g>
  </g>
</svg>
