<svg xmlns="http://www.w3.org/2000/svg" width="24" height="24" viewBox="0 0 24 24">
  <g id="icon-suit" transform="translate(-32 -721)">
    <rect id="사각형_1874" data-name="사각형 1874" width="24" height="24" transform="translate(32 721)" fill="#fff"/>
    <g id="그룹_1536" data-name="그룹 1536" transform="translate(0 -1.06)">
      <g id="suit_2_" data-name="suit (2)" transform="translate(34 722.06)">
        <circle id="타원_423" data-name="타원 423" cx="0.327" cy="0.327" r="0.327" transform="translate(8.501 11.781)"/>
        <circle id="타원_424" data-name="타원 424" cx="0.327" cy="0.327" r="0.327" transform="translate(8.509 14.399)"/>
        <path id="패스_2008" data-name="패스 2008" d="M71.039,18.195a.327.327,0,0,0-.223-.218l-3.68-1.052-.372-.744a.327.327,0,0,0-.293-.18H61.891a.325.325,0,0,0-.293.18l-.372.744-3.68,1.052a.327.327,0,0,0-.223.218,24.71,24.71,0,0,0-.666,3.529A91.787,91.787,0,0,0,56,33.344a.327.327,0,0,0,.327.327h2l-.034.288a.327.327,0,0,0,.115.29,7.574,7.574,0,0,0,5.154,1.383.327.327,0,0,0,.274-.222l.344-1.032.344,1.032a.327.327,0,0,0,.274.222,6.637,6.637,0,0,0,.683.03,7.144,7.144,0,0,0,4.472-1.413.327.327,0,0,0,.115-.29l-.035-.288h2a.327.327,0,0,0,.327-.327,91.785,91.785,0,0,0-.657-11.621A24.7,24.7,0,0,0,71.039,18.195Zm-4.481-.964,1.075,2.151-.913.228a.327.327,0,0,0-.193.5l.533.8L64.4,24.9Zm-.7.078H62.507l-.184-.654H66.04Zm-.184.655-1.491,5.3-1.491-5.3ZM61.8,17.231l2.037,7.241-.048.173L61.3,20.909l.533-.8a.327.327,0,0,0-.193-.5l-.913-.228Zm-5.15,15.786a73.074,73.074,0,0,1,1-13.35l1.61,6.173-.861,7.177ZM59.38,30.4h1.856v.655H59.3ZM63.285,35a6.965,6.965,0,0,1-4.321-1.14l.057-.474.2-1.675h2.341a.327.327,0,0,0,.327-.327V30.072a.327.327,0,0,0-.327-.327H59.458l.467-3.888a.327.327,0,0,0-.008-.122l-1.883-7.217,2.8-.8-.867,1.734a.327.327,0,0,0,.213.464l.858.215-.4.6a.327.327,0,0,0,0,.363l2.923,4.385-.348,1.236a.327.327,0,0,0-.012.089h0v4.909a.328.328,0,0,0,.023.122l.61,1.525Zm1.792,0-.585-1.756c0-.006-.005-.012-.007-.018h0l-.631-1.578V26.9l2.03-3.044h2.225a.327.327,0,1,0,0-.655H66.32l1.406-2.109a.327.327,0,0,0,0-.363l-.4-.6.858-.215a.327.327,0,0,0,.213-.464l-.867-1.734,2.8.8-1.883,7.217a.33.33,0,0,0-.008.122l.466,3.888H66.8a.327.327,0,0,0-.327.327v1.309a.327.327,0,0,0,.327.327H69.14l.2,1.675.057.474A6.966,6.966,0,0,1,65.077,35Zm3.984-3.943H67.127V30.4h1.856Zm.895,1.964L69.1,25.84l1.611-6.175a72.986,72.986,0,0,1,1,13.352Z" transform="translate(-56 -16)"/>
      </g>
      <rect id="사각형_1875" data-name="사각형 1875" width="9" height="18.677" transform="translate(45.732 727.383)" fill="#fff"/>
      <path id="pants" d="M144.755,16h-8.131a.313.313,0,0,0-.313.313v1.874L136,34.445a.313.313,0,0,0,.313.319h3.127a.313.313,0,0,0,.311-.281l.94-9.4.94,9.4a.313.313,0,0,0,.311.281h3.127a.313.313,0,0,0,.313-.319l-.313-16.258V16.313A.313.313,0,0,0,144.755,16ZM141,18.5h.625v2.815a.313.313,0,0,1-.313.313H141Zm.938-.625h-1.876V16.625h3.127v1.251Zm-5.009.625h1.2a1.881,1.881,0,0,1-1.222,1.414Zm1.257-.625V16.625h1.251v1.251Zm6.261.625.027,1.414a1.881,1.881,0,0,1-1.222-1.414Zm-.006-.625h-.626V16.625h.626Zm-7.505-1.251h.625v1.251h-.625Zm2.219,17.513H136.63l.261-13.562a2.547,2.547,0,0,0,1.875-2.074h1.611v3.424Zm3.068,0-1.188-11.884h.28a.939.939,0,0,0,.938-.938V18.5h.36a2.547,2.547,0,0,0,1.875,2.074l.261,13.562Z" transform="translate(-90.599 711.291)"/>
    </g>
  </g>
</svg>
