<svg xmlns="http://www.w3.org/2000/svg" width="24" height="24" viewBox="0 0 24 24">
  <g id="icon-outer" transform="translate(-317 -721)">
    <rect id="사각형_1870" data-name="사각형 1870" width="24" height="23.634" transform="translate(317 721)" fill="#fff"/>
    <g id="long-coat" transform="translate(318 722)">
      <path id="패스_2011" data-name="패스 2011" d="M249.37,224.864a.341.341,0,1,0,.341.341A.341.341,0,0,0,249.37,224.864Z" transform="translate(-238.141 -214.767)"/>
      <path id="패스_2012" data-name="패스 2012" d="M249.37,269.382a.341.341,0,1,0,.341.341A.341.341,0,0,0,249.37,269.382Z" transform="translate(-238.141 -257.287)"/>
      <path id="패스_2013" data-name="패스 2013" d="M304.473,225.546a.341.341,0,1,0-.341-.341A.341.341,0,0,0,304.473,225.546Z" transform="translate(-290.73 -214.768)"/>
      <path id="패스_2014" data-name="패스 2014" d="M304.473,269.382a.341.341,0,1,0,.341.341A.341.341,0,0,0,304.473,269.382Z" transform="translate(-290.73 -257.287)"/>
      <path id="패스_2015" data-name="패스 2015" d="M32.86,17.407l-2-12.674a2.669,2.669,0,0,0-1.7-2.07L25.4,1.394,24.024.094A.354.354,0,0,0,23.774,0H19.537A.351.351,0,0,0,19.3.094l-1.372,1.3L14.159,2.663a2.669,2.669,0,0,0-1.7,2.07l-2,12.674a.647.647,0,0,0,.123.489.666.666,0,0,0,.438.26l2.84.423a.678.678,0,0,0,.762-.553l1.188-7.736.351,3.849v1.837L15.2,21.835A1.022,1.022,0,0,0,16.2,23h10.91a1.029,1.029,0,0,0,1.013-1.172l-.968-5.85V14.141l.35-3.85L28.7,18.027a.679.679,0,0,0,.762.553l2.84-.423a.667.667,0,0,0,.439-.26.646.646,0,0,0,.123-.489ZM27.079,7.453h0L26.5,13.789H20.158V8.839L24.345,4.72a.623.623,0,0,0-.478-1.051l1.454-1.591,2.184.694ZM16.85,15.668v-1.2H20v1.2Zm3.835-1.2h1.953v1.2H20.685Zm2.638,0h3.15v1.2h-3.15ZM21.065,4.3,19.892,6.276,19.279,4.3ZM20.147,7.9l-.01-.7,1.719-2.891,1.905.034Zm1.515-4.606L20.129.674h3.064Zm1.3.361-.713-.013L23.864.878l.875.829ZM19.459.879l1.61,2.751h-.713L18.585,1.707ZM13.952,17.911l-2.81-.418.163-1.064,2.809.418Zm.266-1.73-1.49-.222.1-.719a.338.338,0,0,0-.29-.381.341.341,0,0,0-.387.286l-.1.714-.642-.1L13.137,4.837A1.992,1.992,0,0,1,14.4,3.292L18,2.078,19.432,3.63c-.465-.025-1,.248-.83.8l.85,2.735.022,6.628H16.821l-.874-9.6a.342.342,0,0,0-.682.06l.292,3.21Zm13.155,6.027a.339.339,0,0,1-.26.118H20.227V18.769a.342.342,0,0,0-.685,0v3.557H16.2a.334.334,0,0,1-.331-.383l.926-5.6h2.744v.873a.342.342,0,0,0,.685,0v-.873h6.3l.925,5.594a.328.328,0,0,1-.077.272Zm.8-19.2.748.283a1.992,1.992,0,0,1,1.267,1.545l1.727,10.926-.607.09-.136-.722a.342.342,0,0,0-.4-.27.337.337,0,0,0-.274.393l.132.7-1.525.227-1.339-8.72Zm1.2,14.9-.163-1.064,2.809-.418.163,1.064Z" transform="translate(-10.456 0)"/>
    </g>
  </g>
</svg>
