<svg xmlns="http://www.w3.org/2000/svg" width="24" height="24" viewBox="0 0 24 24">
  <g id="icon-tea" transform="translate(-36 -5019)">
    <path id="Icon_material-local-drink" data-name="Icon material-local-drink" d="M4.5,3,6.51,21.23A2,2,0,0,0,8.5,23h10a2,2,0,0,0,1.99-1.77L22.5,3Zm9,17a3,3,0,0,1-3-3c0-2,3-5.4,3-5.4s3,3.4,3,5.4A3,3,0,0,1,13.5,20ZM19.83,9H7.17L6.73,5H20.26Z" transform="translate(34.5 5018)" fill="#a2a2a2"/>
    <rect id="사각형_1920" data-name="사각형 1920" width="24" height="24" transform="translate(36 5019)" fill="none"/>
  </g>
</svg>
