<svg xmlns="http://www.w3.org/2000/svg" width="24" height="24" viewBox="0 0 24 24">
  <g id="Icon_awesome-user-friends" data-name="Icon awesome-user-friends" transform="translate(-30 -2540)">
    <rect id="frame" width="24" height="24" transform="translate(30 2540)" fill="none"/>
    <path id="Icon_awesome-user-friends-2" data-name="Icon awesome-user-friends" d="M6,9.25a3.5,3.5,0,1,0-3.5-3.5A3.5,3.5,0,0,0,6,9.25Zm2.4,1H8.141a4.832,4.832,0,0,1-4.281,0H3.6A3.6,3.6,0,0,0,0,13.85v.9a1.5,1.5,0,0,0,1.5,1.5h9a1.5,1.5,0,0,0,1.5-1.5v-.9A3.6,3.6,0,0,0,8.4,10.25Zm6.6-1a3,3,0,1,0-3-3A3,3,0,0,0,15,9.25Zm1.5,1h-.119a3.941,3.941,0,0,1-2.763,0H13.5a3.471,3.471,0,0,0-1.741.481A4.573,4.573,0,0,1,13,13.85v1.2c0,.069-.016.134-.019.2H18.5a1.5,1.5,0,0,0,1.5-1.5,3.5,3.5,0,0,0-3.5-3.5Z" transform="translate(32 2542.75)" fill="#a2a2a2"/>
  </g>
</svg>
