<svg xmlns="http://www.w3.org/2000/svg" xmlns:xlink="http://www.w3.org/1999/xlink" width="120" height="120" viewBox="0 0 120 120">
  <defs>
    <clipPath id="clip-path">
      <rect id="사각형_17348" data-name="사각형 17348" width="46" height="50" fill="none"/>
    </clipPath>
  </defs>
  <g id="icon-password" transform="translate(-905 -341)">
    <g id="타원_2" data-name="타원 2" transform="translate(905 341)" fill="#fff" stroke="#ddd" stroke-width="1">
      <circle cx="60" cy="60" r="60" stroke="none"/>
      <circle cx="60" cy="60" r="59.5" fill="none"/>
    </g>
    <g id="icon-password-2" data-name="icon-password" transform="translate(-129 80)">
      <rect id="사각형_17347" data-name="사각형 17347" width="60" height="60" transform="translate(1064 291)" fill="none"/>
      <g id="그룹_112474" data-name="그룹 112474" transform="translate(1071 296)">
        <g id="그룹_112473" data-name="그룹 112473" clip-path="url(#clip-path)">
          <path id="패스_1576" data-name="패스 1576" d="M33,49H13a12,12,0,0,1,0-24H33a12,12,0,0,1,0,24Z" fill="none" stroke="#333" stroke-width="2"/>
          <path id="패스_1577" data-name="패스 1577" d="M11.15,25.144a12,12,0,1,1,23.7,0" fill="none" stroke="#333" stroke-width="2"/>
          <path id="패스_1578" data-name="패스 1578" d="M12.262,34.192l-.24,2.16,2.184-.612.192,1.476-1.992.144,1.308,1.74-1.332.708-.912-1.836-.8,1.824-1.38-.7,1.3-1.74L8.6,37.2,8.83,35.74l2.136.612-.24-2.16Z" fill="#333"/>
          <path id="패스_1579" data-name="패스 1579" d="M23.762,34.192l-.24,2.16,2.184-.612.192,1.476-1.992.144,1.308,1.74-1.332.708-.912-1.836-.8,1.824-1.38-.7,1.3-1.74L20.1,37.2l.228-1.464,2.136.612-.24-2.16Z" fill="#333"/>
          <path id="패스_1580" data-name="패스 1580" d="M35.262,34.192l-.24,2.16,2.184-.612.192,1.476-1.992.144,1.308,1.74-1.332.708-.912-1.836-.8,1.824-1.38-.7,1.3-1.74L31.6,37.2l.228-1.464,2.136.612-.24-2.16Z" fill="#333"/>
          <path id="패스_1581" data-name="패스 1581" d="M16,13V8A7,7,0,0,1,30,8" fill="none" stroke="#333" stroke-linecap="round" stroke-linejoin="round" stroke-width="2"/>
          <line id="선_10" data-name="선 10" y2="4.75" transform="translate(23 20.25)" fill="none" stroke="#333" stroke-linecap="round" stroke-linejoin="round" stroke-width="2"/>
        </g>
      </g>
    </g>
  </g>
</svg>
