<svg xmlns="http://www.w3.org/2000/svg" xmlns:xlink="http://www.w3.org/1999/xlink" width="48" height="48" viewBox="0 0 48 48">
  <defs>
    <clipPath id="clip-path">
      <rect id="사각형_496" data-name="사각형 496" width="13.241" height="24.987" fill="#d14000"/>
    </clipPath>
  </defs>
  <g id="icon-que" transform="translate(-1022 -573.021)">
    <g id="타원_1" data-name="타원 1" transform="translate(1022 573.021)" fill="none" stroke="#d14000" stroke-width="1">
      <circle cx="24" cy="24" r="24" stroke="none"/>
      <circle cx="24" cy="24" r="23.5" fill="none"/>
    </g>
    <g id="그룹_105755" data-name="그룹 105755" transform="translate(1039.493 585.08)">
      <g id="그룹_105754" data-name="그룹 105754" clip-path="url(#clip-path)">
        <path id="패스_1429" data-name="패스 1429" d="M5.729,14.813A2.527,2.527,0,1,1,3.2,17.34a2.527,2.527,0,0,1,2.527-2.527" transform="translate(1.107 5.12)" fill="#d14000"/>
        <path id="패스_1430" data-name="패스 1430" d="M6.836,16.684H6.82a1.68,1.68,0,0,1-1.666-1.7v0c.02-2.2,1.833-4.476,3.431-6.479.33-.413.646-.807.919-1.173a2.036,2.036,0,0,0,.09-2.166A3.185,3.185,0,0,0,6.9,3.364c-1.947,0-3.539,1.171-3.539,2.557A1.682,1.682,0,0,1,0,5.921C0,2.655,3.069,0,6.842,0H7a6.5,6.5,0,0,1,5.615,3.679A5.346,5.346,0,0,1,12.2,9.348c-.292.392-.63.814-.982,1.257C10.145,11.95,8.53,13.969,8.53,15.017a1.685,1.685,0,0,1-1.694,1.667" fill="#d14000"/>
      </g>
    </g>
  </g>
</svg>
