<svg xmlns="http://www.w3.org/2000/svg" width="38" height="38">
    <path fill-rule="evenodd" fill="#478F08" d="M19 .1C29.437.1 37.9 8.562 37.9 19c0 10.438-8.463 18.9-18.9 18.9C8.561 37.9.098 29.438.098 19 .098 8.562 8.561.1 19 .1z"/>
    <path fill-rule="evenodd" fill="#FFF" d="m27.938 26.12-2.943-3.854a1.179 1.179 0 0 0-1.691-.206l-1.133.923c-.524.425-2.766.669-5.04-2.307-2.273-2.976-1.554-5.142-1.034-5.566l1.134-.924a1.266 1.266 0 0 0 .201-1.744l-2.943-3.854a1.181 1.181 0 0 0-1.692-.207l-1.165.952c-1.598 1.359-2.176 3.679-1.628 6.552.473 2.482 1.763 5.194 3.628 7.637 1.867 2.442 4.122 4.369 6.35 5.423 2.61 1.237 4.958 1.183 6.615-.15a.023.023 0 0 1 .007-.007l1.134-.923a1.267 1.267 0 0 0 .2-1.745z"/>
</svg>
