<svg xmlns="http://www.w3.org/2000/svg" width="116.5" height="116.5">
    <path fill="none" d="M0 0h115v115H0V0z"/>
    <path fill-rule="evenodd" fill="#666" d="M92.135 56.531c6.826-1.247 11.155-3.064 12.89-5.442.905-1.239 1.179-2.66.791-4.118-.662-2.457-2.248-4.284-4.581-5.283a.599.599 0 0 1-.361-.391.655.655 0 0 1 .116-.566c1.546-2.221 2.037-4.545 1.456-6.904a7.064 7.064 0 0 0-1.967-3.407c-1.752-1.679-4.005-2.411-6.705-2.195a.663.663 0 0 1-.554-.188.586.586 0 0 1-.154-.499c.302-2.524-.491-4.811-2.293-6.612-1.06-1.06-2.423-1.541-3.947-1.377-2.843.297-6.466 3.002-10.813 8.033 2.344-6.549 2.937-11.208 1.744-13.896-.621-1.403-1.717-2.349-3.167-2.739-2.464-.664-4.845-.206-6.878 1.32a.583.583 0 0 1-.512.114.667.667 0 0 1-.442-.386c-1.128-2.408-2.941-4.038-5.251-4.716a7.112 7.112 0 0 0-3.945.002c-2.301.676-4.114 2.306-5.243 4.714a.663.663 0 0 1-.442.386.587.587 0 0 1-.505-.108c-2.039-1.531-4.419-1.99-6.884-1.327-1.449.391-2.542 1.336-3.164 2.735-1.161 2.612-.627 7.095 1.558 13.364-3.942-4.632-7.915-8.115-11.144-8.465-1.524-.16-2.897.308-3.96 1.367-1.806 1.793-2.6 4.084-2.297 6.625a.576.576 0 0 1-.153.489.655.655 0 0 1-.56.189c-2.694-.228-4.951.51-6.713 2.189a7.031 7.031 0 0 0-1.962 3.406c-.576 2.334-.072 4.722 1.45 6.894a.68.68 0 0 1 .115.587.575.575 0 0 1-.35.376c-2.348 1.005-3.934 2.838-4.588 5.297-.387 1.449-.117 2.868.783 4.106 1.682 2.314 5.831 4.097 12.353 5.345-6.83 1.241-11.161 3.056-12.901 5.436-.906 1.239-1.18 2.661-.792 4.11.653 2.466 2.238 4.299 4.582 5.303a.578.578 0 0 1 .351.382.659.659 0 0 1-.115.572c-1.543 2.216-2.036 4.537-1.462 6.918a7.147 7.147 0 0 0 1.969 3.395c1.759 1.679 4.016 2.417 6.71 2.191a.68.68 0 0 1 .553.19.592.592 0 0 1 .155.498c-.303 2.53.487 4.816 2.285 6.614a4.675 4.675 0 0 0 3.381 1.405c.188 0 .38-.009.573-.03 2.852-.3 6.473-3.001 10.813-8.021-2.338 6.541-2.932 11.199-1.742 13.89.621 1.402 1.715 2.35 3.164 2.742 2.46.666 4.839.207 6.877-1.325a.583.583 0 0 1 .503-.115.667.667 0 0 1 .443.381c1.141 2.449 2.906 4.038 5.252 4.728a7.13 7.13 0 0 0 1.968.278c.662 0 1.324-.093 1.967-.281 2.34-.684 4.108-2.27 5.253-4.713a.668.668 0 0 1 .44-.386.59.59 0 0 1 .512.12c2.046 1.525 4.425 1.984 6.879 1.323 1.449-.39 2.543-1.335 3.166-2.734 1.165-2.622.63-7.121-1.565-13.416 3.954 4.65 7.939 8.149 11.176 8.499.199.022.394.033.587.033 1.291 0 2.449-.479 3.377-1.403 1.807-1.807 2.597-4.099 2.284-6.622a.57.57 0 0 1 .152-.487.674.674 0 0 1 .57-.191c2.693.228 4.948-.515 6.695-2.191a7.066 7.066 0 0 0 1.972-3.407c.581-2.364.091-4.689-1.454-6.905a.67.67 0 0 1-.112-.58.582.582 0 0 1 .35-.379c2.349-1.004 3.936-2.833 4.588-5.292.386-1.449.115-2.868-.785-4.106-1.685-2.316-5.829-4.099-12.34-5.343zm-4.946-33.517c.48-.049.803.06 1.12.375 1.047 1.048 1.471 2.269 1.296 3.735a4.071 4.071 0 0 0 1.109 3.335 4.166 4.166 0 0 0 3.353 1.239c1.68-.14 2.986.266 4.004 1.241.481.459.832 1.066.99 1.715.336 1.367.032 2.703-.927 4.079a4.133 4.133 0 0 0-.613 3.513 4.095 4.095 0 0 0 2.338 2.644c1.378.589 2.202 1.538 2.591 2.984.116.433.046.769-.24 1.162-2.049 2.807-12.224 4.996-26.561 5.713a110.45 110.45 0 0 0-1.464-.075c-.002-.021-.007-.041-.008-.062a15.268 15.268 0 0 0-.555-2.925c-.01-.035-.018-.07-.029-.104-.142-.47-.304-.932-.49-1.385-.007-.018-.016-.036-.023-.056a15.253 15.253 0 0 0-1.388-2.595l-.082-.121a15.425 15.425 0 0 0-.875-1.167l-.007-.007a14.928 14.928 0 0 0-.997-1.08l-.07-.072a15.229 15.229 0 0 0-1.083-.957c-.021-.016-.038-.035-.058-.051.207-.394.431-.815.665-1.264l.308-.356v-.156c7.686-11.74 14.288-18.945 17.696-19.302zm-42.68-7.918c.195-.441.452-.668.886-.786 1.45-.389 2.684-.153 3.89.752a4.092 4.092 0 0 0 3.442.699 4.155 4.155 0 0 0 2.748-2.288c.713-1.519 1.717-2.451 3.06-2.846a3.628 3.628 0 0 1 1.998-.003c1.353.398 2.357 1.33 3.069 2.849a4.156 4.156 0 0 0 2.749 2.288 4.085 4.085 0 0 0 3.449-.704c1.198-.899 2.432-1.137 3.884-.746.435.117.692.345.888.786 1.424 3.214-1.692 12.869-8.336 25.834l-.228.35v.02c-.193.297-.386.595-.562.871-.029-.014-.062-.023-.092-.037a15.192 15.192 0 0 0-1.384-.556l-.2-.064c-.441-.144-.887-.27-1.339-.374-.06-.014-.119-.03-.18-.043a15.009 15.009 0 0 0-1.762-.272 15.244 15.244 0 0 0-1.499-.082h-.004l-.007.001a15.524 15.524 0 0 0-1.564.084c-.407.041-.81.095-1.21.168-.071.013-.141.031-.211.045-.347.069-.689.15-1.028.243-.098.028-.198.053-.296.081-.379.113-.753.24-1.123.382-.033.013-.069.022-.103.035-.255-.404-.534-.838-.83-1.298-6.485-12.733-9.515-22.221-8.105-25.389zM16.322 48.057c-.283-.39-.35-.724-.234-1.16.385-1.45 1.208-2.401 2.588-2.991a4.059 4.059 0 0 0 2.328-2.609c.348-1.197.132-2.485-.599-3.547-.962-1.372-1.266-2.704-.926-4.079a3.586 3.586 0 0 1 .989-1.718c.886-.844 1.997-1.258 3.379-1.258.203 0 .413.008.627.026a4.138 4.138 0 0 0 3.36-1.238 4.062 4.062 0 0 0 1.108-3.325c-.179-1.497.232-2.687 1.294-3.742.318-.317.646-.426 1.125-.373 3.476.377 10.457 8.107 18.228 20.182.229.445.449.87.658 1.269-.037.027-.071.059-.109.086-.344.246-.676.507-.997.779-.1.085-.197.174-.295.263-.264.236-.519.48-.765.734-.074.075-.15.147-.222.224a15.486 15.486 0 0 0-1.074 1.295c-.239.319-.468.646-.68.982-.063.099-.12.201-.181.301-.176.295-.343.596-.5.902-.068.133-.137.266-.201.401-.174.364-.335.735-.48 1.113-.051.132-.094.267-.141.401-.107.303-.203.609-.291.919-.038.134-.079.266-.113.401-.099.393-.179.79-.247 1.192-.012.068-.031.134-.042.202-.465.018-.964.04-1.493.066-14.298-.757-24.05-2.886-26.094-5.698zM30.78 88.969c-.482.053-.808-.058-1.126-.374-1.057-1.058-1.466-2.245-1.287-3.735a4.079 4.079 0 0 0-1.111-3.334 4.134 4.134 0 0 0-3.352-1.24c-1.681.138-2.989-.267-4.013-1.243a3.611 3.611 0 0 1-.988-1.707c-.331-1.372-.024-2.71.935-4.086.73-1.04.952-2.326.609-3.526a4.066 4.066 0 0 0-2.334-2.63c-1.377-.589-2.197-1.539-2.583-2.994-.116-.433-.046-.768.239-1.159 2.058-2.816 12.263-4.998 26.643-5.697.481.025.939.047 1.374.066.007.088.027.175.036.263a14.947 14.947 0 0 0 .48 2.54c.04.143.079.286.123.428.12.384.252.764.401 1.137.051.125.107.248.161.372.134.309.277.614.43.912.053.104.102.21.158.313a15.234 15.234 0 0 0 .868 1.399c.235.339.48.67.742.99.067.082.139.158.208.238.232.271.474.534.727.788.086.087.17.176.257.261.302.291.62.57.947.838.045.035.083.076.127.111-.229.435-.475.904-.737 1.406-7.773 11.95-14.475 19.299-17.934 19.663zm42.674 7.937c-.195.44-.452.667-.885.784h-.001c-1.446.388-2.681.151-3.884-.747a4.083 4.083 0 0 0-3.443-.712 4.154 4.154 0 0 0-2.755 2.289c-.711 1.519-1.717 2.451-3.072 2.847a3.625 3.625 0 0 1-1.984.001c-1.355-.398-2.358-1.332-3.072-2.862a4.157 4.157 0 0 0-2.759-2.283 4.13 4.13 0 0 0-.973-.118c-.875 0-1.738.285-2.463.83-1.198.899-2.427 1.136-3.873.747-.434-.117-.691-.345-.886-.788-1.426-3.222 1.688-12.876 8.328-25.837.282-.435.547-.852.799-1.246.047.022.099.038.147.06.413.188.832.361 1.259.511.025.009.052.016.077.024.464.161.936.295 1.414.41l.015.004c1.157.277 2.345.427 3.547.427 1.36 0 2.713-.19 4.02-.547l.113-.031c.459-.13.912-.277 1.356-.449.017-.006.035-.01.052-.017.18.287.371.588.573.902l.007 1.231h.671c6.189 12.315 9.053 21.464 7.672 24.57zm28.439-31.823-.001.004c-.383 1.443-1.206 2.39-2.589 2.981a4.064 4.064 0 0 0-2.329 2.62 4.157 4.157 0 0 0 .598 3.533c.963 1.38 1.268 2.716.931 4.088a3.556 3.556 0 0 1-.995 1.715c-1.012.971-2.319 1.377-3.994 1.238-1.273-.105-2.501.344-3.369 1.241a4.065 4.065 0 0 0-1.105 3.33c.184 1.487-.226 2.674-1.287 3.735-.318.316-.646.421-1.127.373-3.478-.376-10.474-8.123-18.263-20.22l-.442-.869h-.01l-.184-.358.047-.036c.388-.275.763-.567 1.122-.876l.129-.115a15.26 15.26 0 0 0 1.978-2.097l.105-.137a15.396 15.396 0 0 0 1.53-2.462l.059-.116c.213-.438.407-.886.578-1.343.008-.02.014-.042.023-.063.17-.462.32-.934.446-1.413l.005-.021c.125-.478.224-.964.302-1.455.003-.019.009-.037.011-.056.495-.018 1.027-.041 1.585-.069 14.243.751 23.964 2.876 26.009 5.688.284.39.353.726.237 1.16z"/>
    <path fill-rule="evenodd" stroke="#478F08" stroke-width="3" fill="#FFF" d="M59 39c9.389 0 17 7.611 17 17s-7.611 17-17 17-17-7.611-17-17 7.611-17 17-17z"/>
    <path fill-rule="evenodd" stroke="#478F08" stroke-width="3" fill="#FFF" d="M59 45.969c5.54 0 10.031 4.491 10.031 10.031 0 5.54-4.491 10.031-10.031 10.031-5.54 0-10.032-4.491-10.032-10.031 0-5.54 4.492-10.031 10.032-10.031z"/>
</svg>
