<svg xmlns="http://www.w3.org/2000/svg" width="24" height="24" viewBox="0 0 24 24">
  <g id="icon-awesome-sliders-h" transform="translate(-29 -664)">
    <rect id="frame" width="24" height="24" transform="translate(29 664)" fill="none"/>
    <path id="Icon_awesome-sliders-h" data-name="Icon awesome-sliders-h" d="M15.5,13.25H5v-.5a.5.5,0,0,0-.5-.5h-1a.5.5,0,0,0-.5.5v.5H.5a.5.5,0,0,0-.5.5v1a.5.5,0,0,0,.5.5H3v.5a.5.5,0,0,0,.5.5h1a.5.5,0,0,0,.5-.5v-.5H15.5a.5.5,0,0,0,.5-.5v-1A.5.5,0,0,0,15.5,13.25Zm0-5H13v-.5a.5.5,0,0,0-.5-.5h-1a.5.5,0,0,0-.5.5v.5H.5a.5.5,0,0,0-.5.5v1a.5.5,0,0,0,.5.5H11v.5a.5.5,0,0,0,.5.5h1a.5.5,0,0,0,.5-.5v-.5h2.5a.5.5,0,0,0,.5-.5v-1A.5.5,0,0,0,15.5,8.25Zm0-5H9v-.5a.5.5,0,0,0-.5-.5h-1a.5.5,0,0,0-.5.5v.5H.5a.5.5,0,0,0-.5.5v1a.5.5,0,0,0,.5.5H7v.5a.5.5,0,0,0,.5.5h1a.5.5,0,0,0,.5-.5v-.5h6.5a.5.5,0,0,0,.5-.5v-1A.5.5,0,0,0,15.5,3.25Z" transform="translate(33 666.75)" fill="#244d4d"/>
  </g>
</svg>
