<svg xmlns="http://www.w3.org/2000/svg" width="24" height="24" viewBox="0 0 24 24">
  <g id="icon-dog" transform="translate(-33 -5018)">
    <path id="Icon_awesome-dog" data-name="Icon awesome-dog" d="M23.25,5.25h-3l-.336-.671a1.5,1.5,0,0,0-1.342-.829H16.059L14.781,2.471A.75.75,0,0,0,13.5,3v7.024l6,2.143V10.5H21a3,3,0,0,0,3-3V6A.75.75,0,0,0,23.25,5.25ZM18,7.5a.75.75,0,1,1,.75-.75A.75.75,0,0,1,18,7.5ZM4.5,11.25A1.5,1.5,0,0,1,3,9.75a1.5,1.5,0,0,0-3,0,4.492,4.492,0,0,0,3,4.223V24a.75.75,0,0,0,.75.75h3A.75.75,0,0,0,7.5,24V18.75H15V24a.75.75,0,0,0,.75.75h3A.75.75,0,0,0,19.5,24V13.76l-7.029-2.51Z" transform="translate(33 5016.75)" fill="#a2a2a2"/>
    <rect id="사각형_1915" data-name="사각형 1915" width="24" height="24" transform="translate(33 5018)" fill="none"/>
  </g>
</svg>
