<svg xmlns="http://www.w3.org/2000/svg" width="24" height="24" viewBox="0 0 24 24">
  <g id="icon-coat" transform="translate(-246 -698)">
    <rect id="사각형_1871" data-name="사각형 1871" width="24" height="24" transform="translate(246 698)" fill="#fff"/>
    <g id="coat" transform="translate(177 682)">
      <path id="패스_1980" data-name="패스 1980" d="M72,22.558V35.6a.4.4,0,0,0,.4.4h2.933L75.2,39.585a.4.4,0,0,0,.4.415H86.8a.4.4,0,0,0,.4-.415L87.067,36H90a.4.4,0,0,0,.4-.4V22.558a2.814,2.814,0,0,0-1.342-2.391l-5.623-4.091A.4.4,0,0,0,83.2,16h-4a.4.4,0,0,0-.235.077l-5.623,4.091A2.814,2.814,0,0,0,72,22.558ZM76.223,33.6H77.6v.8H76.193Zm-.074,2.015h0l.015-.415H78a.4.4,0,0,0,.4-.4V33.2a.4.4,0,0,0-.4-.4H76.252l.14-3.776a2,2,0,0,0-.048-.517l-1.86-8.181,1.671-1.215.249,1.746a.4.4,0,0,0,.4.343h.634l-.517.517a.4.4,0,0,0-.03.533L80,26.14V39.2H76.015l.133-3.585Zm7.569-14.532.947.947L80.8,26.86v-.784l3.328-8.505,1.385,1.008-.26,1.822H84a.4.4,0,0,0-.283.683ZM81.2,22.858,79.456,18.4h3.488Zm-.43,1.1-.491,1.254-2.544-3.18.947-.947A.4.4,0,0,0,78.4,20.4H77.147l-.26-1.822,1.385-1.008ZM80.8,39.2V28.14l4.712-5.89a.4.4,0,0,0-.03-.533l-.517-.517H85.6a.4.4,0,0,0,.4-.343l.249-1.746,1.671,1.215-1.86,8.181a2,2,0,0,0-.048.517l.14,3.776H84.4a.4.4,0,0,0-.4.4v1.6a.4.4,0,0,0,.4.4h1.836l.015.415h0l.133,3.585Zm5.407-4.8H84.8v-.8h1.377ZM89.6,22.558V35.2H87.037l-.23-6.205a1.2,1.2,0,0,1,.029-.31l1.784-7.847.01.007A2.01,2.01,0,0,1,89.6,22.558ZM79.33,16.8h3.74l.389.283-.2.517H79.143l-.2-.517Zm-5.56,4.043.01-.007,1.784,7.847a1.2,1.2,0,0,1,.029.311l-.23,6.205H72.8V22.558A2.01,2.01,0,0,1,73.77,20.844Z"/>
      <path id="패스_1981" data-name="패스 1981" d="M264.39,264h0a.38.38,0,1,0,.38.38A.38.38,0,0,0,264.389,264Z" transform="translate(-182.387 -235.578)"/>
      <path id="패스_1982" data-name="패스 1982" d="M264.39,328h0a.38.38,0,1,0,.38.38A.38.38,0,0,0,264.389,328Z" transform="translate(-182.387 -296.372)"/>
      <path id="패스_1983" data-name="패스 1983" d="M264.39,392h0a.38.38,0,1,0,.38.38A.38.38,0,0,0,264.389,392Z" transform="translate(-182.387 -357.167)"/>
    </g>
  </g>
</svg>
