<svg xmlns="http://www.w3.org/2000/svg" width="24" height="24" viewBox="0 0 24 24">
  <g id="icon-tie" transform="translate(-103 -756)">
    <rect id="사각형_1873" data-name="사각형 1873" width="24" height="24" transform="translate(103 756)" fill="#fff"/>
    <path id="necktie" d="M84.12,21.983a.367.367,0,0,0,.291.246.362.362,0,0,0,.057,0,.367.367,0,0,0,.3-.15l4.033-5.5A.367.367,0,0,0,88.5,16H82.634a.367.367,0,0,0-.259.107l-1.941,1.941-1.941-1.941A.367.367,0,0,0,78.234,16H72.368a.367.367,0,0,0-.3.583l4.033,5.5a.367.367,0,0,0,.3.15.362.362,0,0,0,.057,0,.367.367,0,0,0,.291-.246,4.88,4.88,0,0,1,.93-1.68l.874,1.574L77.54,23.9a.366.366,0,0,0-.039.164v12.1a.367.367,0,0,0,.185.318l2.567,1.467a.367.367,0,0,0,.364,0l2.567-1.467a.367.367,0,0,0,.185-.318v-12.1a.366.366,0,0,0-.039-.164l-1.014-2.027.874-1.574A4.878,4.878,0,0,1,84.12,21.983ZM79.183,21.5l-.956-1.721a4.017,4.017,0,0,1,.731-.454,2.982,2.982,0,0,1,2.952,0,4.018,4.018,0,0,1,.731.454L81.685,21.5Zm3.6-4.767h4.991l-3.212,4.38a4.906,4.906,0,0,0-2.37-2.466,4.856,4.856,0,0,0-.982-.342ZM76.3,21.114l-3.212-4.38h4.991l1.573,1.573a4.857,4.857,0,0,0-.982.342A4.906,4.906,0,0,0,76.3,21.114Zm2.891,1.12h2.48l.806,1.612a16.325,16.325,0,0,1-4.246,2.234V24.153Zm3.44,9.1a16.814,16.814,0,0,1-4.4,2.206V32.109a17.464,17.464,0,0,0,4.4-2.086Zm0-2.2a16.814,16.814,0,0,1-4.4,2.206V29.056a17.239,17.239,0,0,0,4.4-2.216Zm0-3.2a16.274,16.274,0,0,1-4.4,2.349V26.855a17.231,17.231,0,0,0,4.4-2.217Zm-2.2,11.281-2.2-1.257V34.309a17.464,17.464,0,0,0,4.4-2.086v3.731Z" transform="translate(34.999 741)"/>
  </g>
</svg>
