<svg xmlns="http://www.w3.org/2000/svg" width="24" height="24" viewBox="0 0 24 24">
  <g id="icon-borrow" transform="translate(-103 -813)">
    <rect id="사각형_1873" data-name="사각형 1873" width="24" height="24" transform="translate(103 813)" fill="#fff"/>
    <g id="XMLID_680_" transform="translate(104.056 814)">
      <path id="XMLID_696_" d="M20.4,3.683a4.263,4.263,0,0,0-2.541-1.666l-4.286-.943V.818A.816.816,0,0,0,12.352.111L11.084.842,9.817.111A.816.816,0,0,0,8.592.818v.254l-4.3.945A4.268,4.268,0,0,0,.944,6.185V20.2a.43.43,0,0,0,.43.43H4.381v.945a.43.43,0,0,0,.43.43H9.36a2.161,2.161,0,0,0,1.727-.861A2.132,2.132,0,0,0,12.8,22h4.549a.43.43,0,0,0,.43-.43v-.945h3.008a.43.43,0,0,0,.43-.43V6.185a4.242,4.242,0,0,0-.811-2.5ZM15.394,2.354l-.479,1.361h-.164a.43.43,0,1,0,0,.859h.693a20.862,20.862,0,0,1-3.5,5.849l-.327.386.455-1.1a16.834,16.834,0,0,0,1.5-6.919V1.954Zm-4.31.03,1.268.732a.817.817,0,0,0,.36.109,15.952,15.952,0,0,1-1.43,6.16l-.2.476-.2-.476a15.952,15.952,0,0,1-1.43-6.16.817.817,0,0,0,.36-.109Zm.431-.8,1.2-.694V2.335l-1.2-.694Zm-.863,0v.056l-1.2.694V.892ZM8.592,2.8a16.834,16.834,0,0,0,1.5,6.919l.444,1.07-.305-.361a20.861,20.861,0,0,1-3.5-5.849h.693a.43.43,0,1,0,0-.859H7.264L6.783,2.35l1.809-.4V2.8ZM1.8,19.766V6.185a3.4,3.4,0,0,1,1.125-2.53,10.383,10.383,0,0,1,1.453,5.3v10.81H1.8ZM9.36,21.141H5.241V16.5H8.32V15.3H5.241V8.955A11.241,11.241,0,0,0,3.635,3.163a3.41,3.41,0,0,1,.844-.307l1.458-.321.415,1.18H6.114a.43.43,0,0,0-.4.575,21.728,21.728,0,0,0,3.865,6.688l1.084,1.282v7.591a1.3,1.3,0,0,1-1.3,1.289Zm7.557,0H12.8a1.285,1.285,0,0,1-1.278-1.289V12.261L12.6,10.979a21.728,21.728,0,0,0,3.865-6.688.43.43,0,0,0-.4-.575h-.239L16.24,2.54l1.438.316a3.41,3.41,0,0,1,.844.307,11.242,11.242,0,0,0-1.605,5.792V15.3H13.859v1.2h3.057v4.64Zm3.437-1.375H17.776V8.955a10.383,10.383,0,0,1,1.453-5.3,3.4,3.4,0,0,1,1.125,2.53Z" transform="translate(0 0)"/>
      <circle id="XMLID_705_" cx="0.43" cy="0.43" r="0.43" transform="translate(10.649 3.55)"/>
      <circle id="XMLID_706_" cx="0.43" cy="0.43" r="0.43" transform="translate(10.649 5.398)"/>
    </g>
  </g>
</svg>
