<svg xmlns="http://www.w3.org/2000/svg" width="24" height="24" viewBox="0 0 24 24">
  <g id="icon-wedding" transform="translate(-32 -813)">
    <rect id="사각형_1874" data-name="사각형 1874" width="24" height="24" transform="translate(32 813)" fill="#fff"/>
    <g id="wedding-couple" transform="translate(33 801.939)">
      <g id="그룹_1505" data-name="그룹 1505" transform="translate(14.685 22.829)">
        <g id="그룹_1504" data-name="그룹 1504" transform="translate(0 0)">
          <path id="패스_1992" data-name="패스 1992" d="M342.079,240.4a.323.323,0,0,0-.323.323v.373a.323.323,0,1,0,.645,0v-.373A.323.323,0,0,0,342.079,240.4Z" transform="translate(-341.756 -240.398)"/>
        </g>
      </g>
      <g id="그룹_1507" data-name="그룹 1507" transform="translate(17.202 22.829)">
        <g id="그룹_1506" data-name="그룹 1506" transform="translate(0 0)">
          <path id="패스_1993" data-name="패스 1993" d="M400.654,240.4a.323.323,0,0,0-.323.323v.373a.323.323,0,1,0,.645,0v-.373A.323.323,0,0,0,400.654,240.4Z" transform="translate(-400.331 -240.398)"/>
        </g>
      </g>
      <g id="그룹_1509" data-name="그룹 1509" transform="translate(15.25 24.626)">
        <g id="그룹_1508" data-name="그룹 1508" transform="translate(0 0)">
          <path id="패스_1994" data-name="패스 1994" d="M356.8,282.281a.323.323,0,0,0-.45.073.615.615,0,0,1-.863,0,.323.323,0,1,0-.524.377,1.248,1.248,0,0,0,1.911,0A.323.323,0,0,0,356.8,282.281Z" transform="translate(-354.899 -282.221)"/>
        </g>
      </g>
      <g id="그룹_1511" data-name="그룹 1511" transform="translate(4.361 23.318)">
        <g id="그룹_1510" data-name="그룹 1510">
          <path id="패스_1995" data-name="패스 1995" d="M101.8,251.769a.323.323,0,0,0-.323.323v.361a.323.323,0,1,0,.645,0v-.361A.323.323,0,0,0,101.8,251.769Z" transform="translate(-101.48 -251.769)"/>
        </g>
      </g>
      <g id="그룹_1513" data-name="그룹 1513" transform="translate(4.908 25.058)">
        <g id="그룹_1512" data-name="그룹 1512" transform="translate(0 0)">
          <path id="패스_1996" data-name="패스 1996" d="M116.06,292.323a.323.323,0,0,0-.45.073.586.586,0,0,1-.819,0,.323.323,0,0,0-.524.377,1.218,1.218,0,0,0,1.867,0A.323.323,0,0,0,116.06,292.323Z" transform="translate(-114.206 -292.263)"/>
        </g>
      </g>
      <g id="그룹_1515" data-name="그룹 1515" transform="translate(12.374 29.875)">
        <g id="그룹_1514" data-name="그룹 1514" transform="translate(0 0)">
          <path id="패스_1997" data-name="패스 1997" d="M288.289,404.379a.323.323,0,0,0-.323.323v.629a.323.323,0,1,0,.645,0V404.7A.323.323,0,0,0,288.289,404.379Z" transform="translate(-287.966 -404.379)"/>
        </g>
      </g>
      <g id="그룹_1517" data-name="그룹 1517" transform="translate(7.486 13.061)">
        <g id="그룹_1516" data-name="그룹 1516">
          <path id="패스_1998" data-name="패스 1998" d="M179.132,13.061a2.093,2.093,0,0,0-1.406.537,2.107,2.107,0,0,0-3.513,1.57,3.648,3.648,0,0,0,1.725,2.845,8,8,0,0,0,1.67.946.323.323,0,0,0,.235,0,8,8,0,0,0,1.67-.946,3.648,3.648,0,0,0,1.725-2.845A2.109,2.109,0,0,0,179.132,13.061Zm-1.406,5.246c-.554-.245-2.867-1.376-2.867-3.139a1.462,1.462,0,0,1,2.613-.9.323.323,0,0,0,.508,0,1.462,1.462,0,0,1,2.613.9C180.593,16.932,178.279,18.062,177.726,18.307Z" transform="translate(-174.213 -13.061)"/>
        </g>
      </g>
      <g id="그룹_1519" data-name="그룹 1519" transform="translate(0 18.008)">
        <g id="그룹_1518" data-name="그룹 1518" transform="translate(0)">
          <path id="패스_1999" data-name="패스 1999" d="M20.128,137.571l-2.04-.6-.03-.008-.32-.064a.164.164,0,0,1-.131-.16v-.154a3.258,3.258,0,0,0,1.76-2h.247a.79.79,0,0,0,.789-.789v-.517a.79.79,0,0,0-.275-.6v-.569a3.368,3.368,0,0,0-3.364-3.364H15.77a3.368,3.368,0,0,0-3.364,3.364v.569a.79.79,0,0,0-.275.6v.517a.79.79,0,0,0,.789.789h.247a3.258,3.258,0,0,0,1.7,1.974v.192a.164.164,0,0,1-.131.16l-.257.052h0l-.03.008-2.04.6a2.62,2.62,0,0,0-1.6,1.349,2.449,2.449,0,0,0-.508-.58l.786-.249a1.032,1.032,0,0,0,.719-1.044,13.928,13.928,0,0,0-1.076-4.5,5.971,5.971,0,0,0-3.58-3.711,1.53,1.53,0,0,0-2.487,0,5.972,5.972,0,0,0-3.58,3.711A13.927,13.927,0,0,0,0,137.047a1.032,1.032,0,0,0,.719,1.044l.786.249A2.428,2.428,0,0,0,.626,140.2v3.605a.323.323,0,0,0,.323.323l20.729,0a.323.323,0,0,0,.323-.323v-3.732A2.624,2.624,0,0,0,20.128,137.571Zm-10-4.771a13.266,13.266,0,0,1,1.027,4.284.387.387,0,0,1-.269.392l-1.368.433-.077-.024-1.869-.55-.028-.007-.293-.059a.123.123,0,0,1-.1-.12V137l.037-.017.1-.047.049-.025.1-.053.042-.024.105-.064.03-.019q.061-.04.119-.082l.012-.008a3.161,3.161,0,0,0,1.162-1.618h.238a.775.775,0,0,0,.774-.774v-.5c0-.024,0-.047,0-.07l0-.017c0-.023-.006-.046-.01-.068v0c0-.021-.01-.042-.016-.062l0-.015c-.007-.021-.014-.042-.023-.063l0-.007c-.008-.019-.017-.037-.026-.055l-.007-.014c-.011-.019-.022-.038-.034-.056l-.005-.008q-.017-.024-.035-.047l-.009-.011c-.014-.017-.029-.033-.044-.048l-.008-.008-.043-.039-.011-.009q-.025-.021-.052-.039l-.01-.007-.025-.016c0-.054,0-.107,0-.16,0-.019,0-.038,0-.058s0-.066-.008-.1,0-.051-.007-.076l0-.026a3.643,3.643,0,0,0-1.223-2.32h0c-.062-.054-.125-.107-.191-.156L8.1,130.2l-.061-.045-.072-.052-.05-.034-.11-.07-.02-.012q-.07-.042-.142-.082l-.022-.012q-.062-.033-.125-.064l-.03-.014-.036-.017q0-.033,0-.066c0-.028,0-.057,0-.085,0,0,0,0,0,0A5.7,5.7,0,0,1,10.131,132.8Zm-3.01,1.716a.323.323,0,0,0,.323-.323v-.361a.321.321,0,0,0-.065-.194H8.406v.473q0,.067,0,.134s0,.006,0,.009c0,.042-.006.085-.01.127v0q-.007.066-.018.131v.007q-.01.062-.024.123c0,.018-.008.036-.012.053s-.013.05-.019.076l-.015.052-.016.051-.019.055q-.014.041-.03.081l-.013.034q-.042.1-.092.2l0,.005a2.534,2.534,0,0,1-.7.837l-.009.007-.054.04-.03.022-.072.049-.05.032-.039.024-.069.04-.028.016L7,136.362l-.029.014-.095.043-.011,0-.088.035-.033.012-.059.02-.054.018-.056.016-.095.025-.064.015-.052.01-.063.011-.051.008-.067.009-.048.005-.076.006-.04,0c-.039,0-.078,0-.118,0s-.081,0-.121,0l-.037,0-.084-.006-.041,0-.08-.01-.04-.006-.081-.014-.037-.007-.084-.02-.031-.008-.094-.027-.019-.006a2.489,2.489,0,0,1-.438-.185L4.7,136.31l-.092-.053-.023-.014-.061-.039-.047-.032-.017-.012a2.541,2.541,0,0,1-.89-1.13l0-.009c-.016-.041-.031-.082-.044-.123l-.007-.021-.017-.054-.014-.05q-.009-.034-.018-.068c0-.02-.01-.04-.014-.06q-.013-.06-.023-.121l0-.009q-.01-.064-.017-.128v-.005c0-.042-.008-.083-.01-.125,0,0,0-.007,0-.01q0-.067,0-.134v-.519l.009,0,.035-.016.014-.007.045-.026h0l.042-.03.012-.01.029-.026.011-.01a.6.6,0,0,0,.068-.08l.009-.013.021-.034.008-.014c.009-.016.017-.032.024-.048a.321.321,0,0,0,.017-.047l.238-.893a.115.115,0,0,1,.185-.058,5.114,5.114,0,0,0,2.71,1.347.321.321,0,0,0-.077.209v.361A.323.323,0,0,0,7.12,134.517Zm1.918-.119c0-.02,0-.039,0-.059s0-.051.005-.076c0-.05,0-.1,0-.151v-.473h.1a.129.129,0,0,1,.129.129v.5a.129.129,0,0,1-.129.129Zm-4.007-4.836c0-.023.01-.045.016-.067l0-.013c.005-.018.011-.037.018-.055l.007-.018q.01-.026.022-.051l.006-.013a.887.887,0,0,1,1.594,0l.006.014c.008.017.015.034.022.051l.007.018c.007.018.013.036.018.054l0,.013q.009.033.016.067v.006l-.125-.028-.032-.006c-.05-.01-.1-.019-.15-.027l-.012,0c-.054-.008-.108-.015-.162-.021l-.032,0q-.08-.008-.16-.012H6.072c-.056,0-.113,0-.17,0s-.113,0-.17,0H5.7q-.08,0-.16.012l-.032,0c-.054.006-.108.012-.161.021l-.012,0c-.05.008-.1.017-.15.027l-.033.006-.125.028Zm-.542.9.019-.01q.119-.062.243-.114l.028-.011.088-.034.059-.021L5,130.247l.064-.019.071-.02.064-.016.074-.017.063-.013.079-.014.06-.01.085-.011.056-.006.1-.007.047,0c.048,0,.1,0,.144,0s.1,0,.144,0l.047,0,.1.007.056.006.085.011.06.01.079.014.063.013.074.017.064.016.071.02.064.019.071.024.06.021.088.034.028.011q.125.052.244.115l.019.01.1.054.029.017.083.052.031.02.089.061.069.051.038.029.071.058.015.013a3.027,3.027,0,0,1,1.049,1.958c0,.015,0,.03.005.045s0,.042.005.063,0,.053.005.08c0,.01,0,.02,0,.03H7.146a4.56,4.56,0,0,1-2.565-1.209c-.016-.013-.032-.025-.048-.037l-.014-.01-.04-.026-.012-.007-.052-.027-.012-.005-.044-.018-.016-.006-.053-.017h0l-.057-.013-.017,0-.045-.006-.015,0-.058,0H4.042l-.019,0-.035,0-.019,0-.037.007-.017,0-.053.014a.756.756,0,0,0-.506.529l-.22.825H2.9q0-.015,0-.03c0-.027,0-.054.005-.081s0-.042.005-.063,0-.03.005-.045a3.027,3.027,0,0,1,1.049-1.958l.015-.012.072-.058.037-.028.07-.052.088-.061.032-.02.083-.052.03-.017ZM.916,137.476a.387.387,0,0,1-.269-.392A13.267,13.267,0,0,1,1.673,132.8a5.7,5.7,0,0,1,2.7-3.155s0,0,0,0c0,.028,0,.056,0,.085s0,.044,0,.066l-.036.017-.03.014q-.063.031-.125.064l-.023.012q-.072.039-.142.082L4,130l-.109.07-.05.034-.072.051L3.7,130.2l-.007.005a3.648,3.648,0,0,0-1.416,2.479c0,.009,0,.017,0,.026,0,.025,0,.051-.007.076s-.005.066-.008.1,0,.038,0,.058c0,.053,0,.107,0,.16l-.025.016-.01.007q-.027.018-.052.039l-.011.009-.043.039-.008.008q-.023.023-.044.048l-.009.011c-.012.015-.024.031-.035.047l-.005.008c-.012.018-.023.037-.034.056l-.007.014c-.009.018-.018.036-.026.055l0,.007c-.009.02-.016.041-.023.063l0,.015c-.006.02-.012.041-.016.062v0c0,.022-.008.045-.01.068l0,.017c0,.023,0,.047,0,.07v.5a.775.775,0,0,0,.774.774h.238v0c.006.02.013.04.02.06a3.129,3.129,0,0,0,1.617,1.842l.012.006.052.025v.182a.123.123,0,0,1-.1.12l-.24.048-.027.007-1.869.55h0l-.075.023Zm1.841-3.213c0,.025,0,.05.005.074s0,.04,0,.06H2.655a.129.129,0,0,1-.129-.129v-.5a.129.129,0,0,1,.129-.129h.1v.473C2.752,134.162,2.754,134.213,2.756,134.263Zm7.776,9.223H9.644v-3.044a.762.762,0,0,0-.148-.451,2.179,2.179,0,0,0-3.427-.1.214.214,0,0,1-.332,0,2.179,2.179,0,0,0-3.427.1.762.762,0,0,0-.148.451v.578a.323.323,0,1,0,.645,0v-.578a.112.112,0,0,1,.021-.066,1.534,1.534,0,0,1,2.413-.068.86.86,0,0,0,1.324,0,1.534,1.534,0,0,1,2.413.068.112.112,0,0,1,.021.066v3.044H2.806v-.964a.323.323,0,1,0-.645,0v.964H1.272V140.2a1.781,1.781,0,0,1,1.187-1.671l.015-.005.027-.009.042-.013h0l1.855-.546.226-.045q.033-.007.065-.016l.021-.007.041-.014.024-.011.035-.016.025-.013.032-.018.025-.016.029-.019.024-.018.027-.021.022-.021.024-.023.021-.022.022-.025.019-.024.02-.026.017-.026.017-.028.015-.027.015-.029.013-.029.013-.031.01-.03c0-.01.007-.021.01-.032s.005-.02.008-.031.005-.022.007-.033,0-.021.005-.031,0-.022,0-.034,0-.021,0-.032,0-.012,0-.018l.017,0,.071.013.083.015.083.011.073.009.095.008.063,0,.1,0,.061,0H5.9l.085,0h.058l.106-.007.054,0,.108-.013.051-.007.113-.019.037-.006s0,.005,0,.008,0,.019,0,.029,0,.024,0,.036,0,.019.006.029,0,.023.008.035.005.019.008.028.007.022.011.033l.01.027.013.032.012.026.016.031.014.025.018.029.016.024.021.027.018.023.023.026.02.021.025.024.021.019.027.022.023.017.03.02.024.015.032.018.024.013.035.016.024.01.041.014.021.007c.021.006.042.012.064.016l.279.056,1.855.546.069.022.008,0a1.781,1.781,0,0,1,1.194,1.674v3.283Zm7.552-5.393.44.777-1.278,1.98Zm-1.64.98h-.356l-.126-.218.3-.278.3.278ZM16.527,141l-.143.469-.118.388-.26-.856.177-1.279h.165Zm-1.121-3.156a3.382,3.382,0,0,0,.6.1l-.669.611a.32.32,0,0,0-.053.065l-.267-.879Zm-.011-.67a.806.806,0,0,0,.118-.384l.093.021.028.005.119.021.029,0,.128.016.042,0,.125.01.045,0,.127,0h.041l.132,0,.031,0,.127-.01.02,0c.048,0,.1-.011.143-.018l.022,0c.048-.007.1-.016.142-.025l.018,0,.036-.007a.807.807,0,0,0,.131.382l-.132.035a2.746,2.746,0,0,1-1.393,0Zm1.133.771a3.378,3.378,0,0,0,.6-.1l.391-.1-.267.879a.32.32,0,0,0-.053-.065Zm2.97-4.058c0-.031.005-.062.007-.093q0-.079,0-.158v-.5h.105l.028,0h0l.017.006.011,0h0a.144.144,0,0,1,.085.131v.517a.144.144,0,0,1-.144.144h-.119C19.5,133.92,19.5,133.9,19.5,133.884Zm-6.579.055h0a.144.144,0,0,1-.144-.144v-.517a.144.144,0,0,1,.085-.131l.026-.009h0l.028,0h.105v.5q0,.079,0,.158c0,.031,0,.062.007.093s0,.037,0,.055Zm.519-2.448-.036.013-.015.007-.019.009-.017.011-.014.009-.017.014-.012.01-.016.016-.01.01-.014.018-.009.011-.012.02-.007.012c0,.007-.007.014-.01.021l-.005.011,0,0h0v0h0v0c-.017.045-.032.091-.047.137v0a3.217,3.217,0,0,0-.123.558v-.284a2.722,2.722,0,0,1,2.719-2.719h.994a2.722,2.722,0,0,1,2.719,2.719v.284c0-.017,0-.035-.007-.052v0l0-.03v0q-.01-.067-.024-.133h0l-.007-.034v0q-.013-.061-.028-.12v0l0-.012v0h0v0c0-.007,0-.013-.007-.02s-.006-.02-.011-.029-.007-.013-.011-.02-.009-.018-.015-.026l-.014-.018c-.006-.008-.012-.016-.019-.023l-.018-.016-.021-.018-.022-.015-.021-.013-.027-.012-.021-.009-.03-.008-.022-.005-.03,0-.023,0h-.011a.322.322,0,0,0-.161.045,2.664,2.664,0,0,1-1.364.309,5.83,5.83,0,0,1-1.7-.354,4.681,4.681,0,0,0-2.167-.323l-.022,0h-.008C13.589,131.451,13.514,131.468,13.439,131.49Zm.29,2.7q-.014-.063-.024-.126l0-.008q-.011-.067-.018-.134v0c0-.044-.008-.087-.011-.131,0,0,0-.007,0-.01q0-.07,0-.139v-.817s0,0,0-.005h0c0-.026,0-.051,0-.077s0-.024,0-.037,0-.018,0-.027v-.006l0-.022c0-.027,0-.054.006-.082h0c0-.012,0-.024,0-.036l0-.014c0-.024.006-.048.009-.072s.005-.035.008-.053.008-.045.012-.068.007-.036.011-.053.01-.044.015-.066v-.005c0-.016.008-.032.012-.048s.012-.044.019-.066l0-.005.041-.006.071-.011.089-.008.023,0a4.041,4.041,0,0,1,1.383.237l.283.088a9.045,9.045,0,0,0,1.278.333,3.878,3.878,0,0,0,.613.051c.1,0,.2,0,.3-.01.071,0,.142-.01.211-.018h.016l.1-.014.061-.009.061-.011.1-.018.061-.014.092-.022.087-.025.061-.017.071-.024.071-.025v0c0,.038.007.077.009.115h0v.028h0c0,.039,0,.077,0,.116h0s0,0,0,.005v.817q0,.069,0,.139s0,.007,0,.01c0,.044-.006.087-.011.13v0q-.007.067-.018.134l0,.009q-.011.063-.024.126a2.606,2.606,0,0,1-1.76,1.926l-.023.007-.094.027-.034.008-.086.02-.039.008-.082.015-.042.007-.082.01-.043,0-.087.007-.038,0q-.063,0-.126,0t-.128,0l-.044,0-.083-.006-.054-.006-.071-.009-.06-.01-.062-.011-.066-.014-.055-.013-.07-.019-.048-.014-.073-.023-.045-.015-.071-.026A2.606,2.606,0,0,1,13.729,134.185Zm.719,3.908.838,2.757-1.278-1.98Zm5.664,5.391v-3.093a.323.323,0,0,0-.645,0v3.093H13.019v-.962a.323.323,0,0,0-.645,0v.962h-1.2v-3.409a1.975,1.975,0,0,1,1.409-1.884l1.277-.376-.48.848a.436.436,0,0,0,.023.467L16,143.137l0,0,.005.008,0,.006.013.016,0,.005.012.014h0l.008.008.007.007.02.016,0,0,0,0,0,0,.028.017.006,0,.006,0,.009,0,.011,0,.015.006.007,0h0l.014,0,.013,0,.017,0,.01,0,.01,0,.037,0h0l.037,0,.01,0,.01,0,.017,0,.013,0,.014,0h0l.008,0,.015-.006.011,0,.009,0,.005,0,.006,0,.028-.017,0,0,0,0,0,0,.02-.016.007-.007.021-.022,0-.006.013-.017,0,0,.005-.008,0,0,2.588-4.008a.436.436,0,0,0,.023-.467l-.48-.848,1.277.376a1.975,1.975,0,0,1,1.409,1.884v3.409Z" transform="translate(0 -128.201)"/>
        </g>
      </g>
    </g>
  </g>
</svg>
