<svg id="half" xmlns="http://www.w3.org/2000/svg" width="42" height="40" viewBox="0 0 42 40">
  <path id="half-2" data-name="half" d="M22.712,1.061a1.912,1.912,0,0,0-3.423,0L13.833,12.076l-12.2,1.777A1.9,1.9,0,0,0,.579,17.1L9.4,25.667l-2.083,12.1a1.908,1.908,0,0,0,2.77,2.006L21,34.059l10.909,5.718a1.908,1.908,0,0,0,2.77-2.006L32.6,25.667,41.421,17.1a1.9,1.9,0,0,0-1.056-3.246l-12.2-1.777Z" transform="translate(0 0)" fill="#e8e8e8"/>
  <path id="교차_1" data-name="교차 1" d="M7.2,2.2l2.048,11.94L.57,22.591a1.876,1.876,0,0,0,1.038,3.2L13.6,27.545l5.363,10.866a1.855,1.855,0,0,0,1.683,1.046V5.861L9.922.22A1.872,1.872,0,0,0,7.2,2.2Z" transform="translate(41.649 39.458) rotate(180)" fill="#244d4d"/>
</svg>
