<svg id="icon-place" xmlns="http://www.w3.org/2000/svg" width="20" height="20" viewBox="0 0 20 20">
  <g id="map" transform="translate(2 -1.769)">
    <path id="Shape" d="M12.181,16.511a25.311,25.311,0,0,1-2.557,2.436c-.305.253-.59.477-.846.67-.156.117-.27.2-.334.244a.773.773,0,0,1-.888,0c-.064-.045-.178-.127-.334-.244-.256-.193-.54-.416-.846-.67a25.311,25.311,0,0,1-2.557-2.436C1.442,13.9,0,11.143,0,8.333A8.172,8.172,0,0,1,8,0a8.172,8.172,0,0,1,8,8.333C16,11.143,14.558,13.9,12.181,16.511Z" transform="translate(0 1.769)" fill="#e8e8e8"/>
    <path id="Oval" d="M3.2,6.667A3.269,3.269,0,0,1,0,3.333,3.269,3.269,0,0,1,3.2,0,3.269,3.269,0,0,1,6.4,3.333,3.269,3.269,0,0,1,3.2,6.667Z" transform="translate(4.8 6.769)" fill="#fff"/>
  </g>
  <rect id="사각형_1925" data-name="사각형 1925" width="20" height="20" fill="none"/>
</svg>
