<svg xmlns="http://www.w3.org/2000/svg" width="24" height="24" viewBox="0 0 24 24">
  <g id="Icon" transform="translate(0.077 -0.269)">
    <rect id="사각형_1897" data-name="사각형 1897" width="24" height="24" transform="translate(-0.077 0.269)" fill="none"/>
    <g id="Shape" transform="translate(1.923 3.269)" fill="none">
      <path d="M20,5.905a6.026,6.026,0,0,1-1.663,4.175l-7.1,7.387a1.7,1.7,0,0,1-2.47,0l-7.1-7.387a6.074,6.074,0,0,1,0-8.351,5.524,5.524,0,0,1,8.029,0L10,2.051l.308-.32a5.523,5.523,0,0,1,8.029,0A6.026,6.026,0,0,1,20,5.905Z" stroke="none"/>
      <path d="M 14.32232475280762 2.000003814697266 C 13.35500431060791 2.000003814697266 12.44141387939453 2.396324157714844 11.74953460693359 3.116304397583008 L 9.999753952026367 4.936293601989746 L 8.24985408782959 3.116153717041016 C 7.558154106140137 2.396703720092773 6.644504547119141 2.000483512878418 5.677204132080078 2.000483512878418 C 4.709903717041016 2.000483512878418 3.79625415802002 2.396703720092773 3.104564666748047 3.116153717041016 C 1.625844955444336 4.654204368591309 1.625844955444336 7.156793594360352 3.104564666748047 8.694844245910645 L 9.99976921081543 15.86672115325928 L 16.89528465270996 8.694514274597168 C 17.59734344482422 7.964613914489746 18.00000381469727 6.948054313659668 18.00000381469727 5.90549373626709 C 18.00000381469727 4.862983703613281 17.59733390808105 3.846413612365723 16.89468383789062 3.115863800048828 C 16.20315361022949 2.396293640136719 15.28960418701172 2.000003814697266 14.32232475280762 2.000003814697266 M 14.32232475280762 3.814697265625e-06 C 15.82810401916504 3.814697265625e-06 17.27218437194824 0.6223335266113281 18.33671379089355 1.730024337768555 C 19.40167427062988 2.837273597717285 20.00000381469727 4.339293479919434 20.00000381469727 5.90549373626709 C 20.00000381469727 7.471774101257324 19.40161323547363 8.973854064941406 18.33671379089355 10.08097457885742 L 11.2347240447998 17.46794319152832 C 10.55267333984375 18.17735481262207 9.446853637695312 18.17735481262207 8.764814376831055 17.46794319152832 L 1.662815093994141 10.08097457885742 C -0.5542755126953125 7.774924278259277 -0.5542755126953125 4.036073684692383 1.662815093994141 1.730024337768555 C 3.879901885986328 -0.5760250091552734 7.474514007568359 -0.5760250091552734 9.691604614257812 1.730024337768555 L 9.999764442443848 2.050554275512695 L 10.30778408050537 1.73017406463623 C 11.37233448028564 0.6223945617675781 12.81647396087646 3.814697265625e-06 14.32232475280762 3.814697265625e-06 Z" stroke="none" fill="#000"/>
    </g>
  </g>
</svg>
