<svg xmlns="http://www.w3.org/2000/svg" width="24" height="24" viewBox="0 0 24 24">
  <g id="icon-channel" transform="translate(-265 -4285)">
    <g id="레이어_2" data-name="레이어 2" transform="translate(269 4288)">
      <g id="레이어_1" data-name="레이어 1">
        <path id="패스_2010" data-name="패스 2010" d="M8,0A7.782,7.782,0,0,0,0,7.543a7.394,7.394,0,0,0,3.183,6.022v3.311A.123.123,0,0,0,3.306,17a.127.127,0,0,0,.072-.023L6.246,14.9A8.516,8.516,0,0,0,8,15.086a7.778,7.778,0,0,0,8-7.543A7.778,7.778,0,0,0,8,0ZM5.612,9.558A1.86,1.86,0,0,0,7.342,8.31H8.549a3.052,3.052,0,0,1-2.937,2.467A3.1,3.1,0,0,1,2.593,7.606,3.093,3.093,0,0,1,5.612,4.441,3.052,3.052,0,0,1,8.549,6.9H7.342a1.862,1.862,0,0,0-1.73-1.25,1.955,1.955,0,0,0,0,3.907ZM13.4,10.784H12.276v-2.8a.99.99,0,0,0-.189-.7.727.727,0,0,0-.537-.19.868.868,0,0,0-.379.084.921.921,0,0,0-.314.247,1.218,1.218,0,0,0-.216.4,1.656,1.656,0,0,0-.075.539v2.417H9.437V4.308h1.129V6.749a1.857,1.857,0,0,1,.453-.338A1.6,1.6,0,0,1,11.8,6.22a1.544,1.544,0,0,1,1.194.45A1.96,1.96,0,0,1,13.4,8.024Z"/>
      </g>
    </g>
    <rect id="사각형_1912" data-name="사각형 1912" width="24" height="24" transform="translate(265 4285)" fill="none"/>
  </g>
</svg>
