<svg xmlns="http://www.w3.org/2000/svg" width="24" height="24" viewBox="0 0 24 24">
  <g id="icon-feather-share-2" transform="translate(-54.25 0.373)">
    <rect id="frame" width="24" height="24" transform="translate(54.25 -0.373)" fill="none"/>
    <g id="Icon_feather-share-2" data-name="Icon feather-share-2" transform="translate(52.75 -1.373)">
      <path id="패스_1944" data-name="패스 1944" d="M28.409,5.955A2.955,2.955,0,1,1,25.455,3,2.955,2.955,0,0,1,28.409,5.955Z" transform="translate(-5.909)" fill="none" stroke="#fff" stroke-linecap="round" stroke-linejoin="round" stroke-width="2"/>
      <path id="패스_1945" data-name="패스 1945" d="M10.409,16.455A2.955,2.955,0,1,1,7.455,13.5,2.955,2.955,0,0,1,10.409,16.455Z" transform="translate(0 -3.455)" fill="none" stroke="#fff" stroke-linecap="round" stroke-linejoin="round" stroke-width="2"/>
      <path id="패스_1946" data-name="패스 1946" d="M28.409,26.955A2.955,2.955,0,1,1,25.455,24,2.955,2.955,0,0,1,28.409,26.955Z" transform="translate(-5.909 -6.909)" fill="none" stroke="#fff" stroke-linecap="round" stroke-linejoin="round" stroke-width="2"/>
      <path id="패스_1947" data-name="패스 1947" d="M12.885,20.265l6.727,3.92" transform="translate(-2.743 -5.712)" fill="none" stroke="#fff" stroke-linecap="round" stroke-linejoin="round" stroke-width="2"/>
      <path id="패스_1948" data-name="패스 1948" d="M19.6,9.765l-6.717,3.92" transform="translate(-2.743 -2.238)" fill="none" stroke="#fff" stroke-linecap="round" stroke-linejoin="round" stroke-width="2"/>
    </g>
  </g>
</svg>
