<svg xmlns="http://www.w3.org/2000/svg" width="116.5" height="116.5">
    <path fill="none" d="M0 0h115v115H0V0z"/>
    <path fill-rule="evenodd" stroke="#666" stroke-width="3" fill="#FFF" d="M20.999 9h70a4 4 0 0 1 4 4v87a4 4 0 0 1-4 4h-70a4 4 0 0 1-4-4V13a4 4 0 0 1 4-4z"/>
    <path fill-rule="evenodd" stroke="#666" stroke-width="3" fill="#FFF" d="M16.999 30h78a4 4 0 0 1 4 4v46a4 4 0 0 1-4 4h-78a4 4 0 0 1-4-4V34a4 4 0 0 1 4-4z"/>
    <path stroke="#666" stroke-width="3" fill="none" d="m40.999 25 16 34 14-34"/>
    <path stroke="#478F08" stroke-width="3" fill="none" d="M12.999 53h86v11h-86V53z"/>
    <path fill-rule="evenodd" stroke="#666" stroke-width="3" fill="#FFF" d="M49.999 53a8 8 0 0 1 8 8 8 8 0 1 1-16 0 8 8 0 0 1 8-8z"/>
    <path fill-rule="evenodd" stroke="#666" stroke-width="3" fill="#FFF" d="M62.999 53a8 8 0 1 1 0 16 8 8 0 0 1 0-16zM97.999 35v44"/>
</svg>
