<svg xmlns="http://www.w3.org/2000/svg" width="103.5" height="115.5">
    <path stroke="#666" stroke-width="3" fill="none" d="M20.494 46.501V33.6c0-17.723 13.882-32.092 31.005-32.092 17.123 0 31.002 14.369 31.002 32.092v12.901"/>
    <path stroke="#666" stroke-width="3" fill="none" d="M9.499 43.5H92.5a8 8 0 0 1 7.999 8v53a8 8 0 0 1-7.999 8H9.499a8 8 0 0 1-8-8v-53a8 8 0 0 1 8-8z"/>
    <path fill-rule="evenodd" fill="#666" d="M78.305 76.893a.859.859 0 0 0 .205-.853.81.81 0 0 0-.648-.566l-2.695-.407a.344.344 0 0 1-.263-.202l-1.206-2.543a.79.79 0 0 0-.717-.464.795.795 0 0 0-.716.464l-1.206 2.543a.349.349 0 0 1-.262.202l-2.696.408a.803.803 0 0 0-.647.566.851.851 0 0 0 .202.852l1.951 1.98a.373.373 0 0 1 .102.325l-.46 2.796a.83.83 0 0 0 .175.674.783.783 0 0 0 .983.202l2.41-1.32a.35.35 0 0 1 .33 0l2.41 1.32a.767.767 0 0 0 .371.097.789.789 0 0 0 .613-.299.844.844 0 0 0 .174-.674l-.46-2.796a.376.376 0 0 1 .102-.325l1.948-1.98zM56.578 76.893a.853.853 0 0 0 .201-.853.802.802 0 0 0-.644-.566l-2.696-.407a.355.355 0 0 1-.266-.202l-1.203-2.543a.795.795 0 0 0-.718-.464.795.795 0 0 0-.716.464l-1.206 2.543a.346.346 0 0 1-.263.202l-2.694.408a.8.8 0 0 0-.646.566.855.855 0 0 0 .2.852l1.952 1.98a.366.366 0 0 1 .1.325l-.46 2.796a.838.838 0 0 0 .176.674.781.781 0 0 0 .982.202l2.412-1.32a.349.349 0 0 1 .329 0l2.41 1.32a.769.769 0 0 0 .984-.202.844.844 0 0 0 .174-.674l-.46-2.796a.374.374 0 0 1 .103-.325l1.949-1.98zM34.849 76.893a.86.86 0 0 0 .204-.853.81.81 0 0 0-.647-.566l-2.696-.407a.346.346 0 0 1-.263-.202l-1.207-2.543a.79.79 0 0 0-.716-.464.791.791 0 0 0-.716.464l-1.205 2.543a.354.354 0 0 1-.263.202l-2.696.408a.802.802 0 0 0-.647.566.855.855 0 0 0 .201.852l1.952 1.98a.37.37 0 0 1 .101.325l-.46 2.796c-.04.246.02.485.176.674a.78.78 0 0 0 .981.202l2.41-1.32a.35.35 0 0 1 .33 0l2.411 1.32a.77.77 0 0 0 .982-.202.835.835 0 0 0 .176-.674l-.458-2.796a.372.372 0 0 1 .1-.325l1.95-1.98z"/>
</svg>
