<svg xmlns="http://www.w3.org/2000/svg" width="24" height="24" viewBox="0 0 24 24">
  <g id="search" transform="translate(-339 -41)">
    <rect id="frame" width="24" height="24" transform="translate(339 41)" fill="none"/>
    <path id="빼기_1" data-name="빼기 1" d="M9718.715,1722a1.273,1.273,0,0,1-.908-.377l-2.886-2.886a8.144,8.144,0,1,1,1.817-1.817l2.886,2.886a1.286,1.286,0,0,1-.909,2.194Zm-8.573-15.428a5.572,5.572,0,1,0,3.848,9.6.935.935,0,0,1,.088-.1c.031-.032.068-.063.095-.086a5.569,5.569,0,0,0-4.03-9.418Z" transform="translate(-9360 -1660)"/>
  </g>
</svg>
