<svg xmlns="http://www.w3.org/2000/svg" width="24" height="24" viewBox="0 0 24 24">
  <g id="icon-blog" transform="translate(-241 -4284)">
    <g id="레이어_2" data-name="레이어 2" transform="translate(244 4288)">
      <g id="레이어_1" data-name="레이어 1" transform="translate(0)">
        <path id="패스_2009" data-name="패스 2009" d="M14.313,6.308a.747.747,0,1,1-.707.743.766.766,0,0,1,.207-.528.685.685,0,0,1,.5-.217Zm-4.243,0a.707.707,0,0,1,.652.461.777.777,0,0,1-.154.813.678.678,0,0,1-.77.16.748.748,0,0,1-.434-.691.727.727,0,0,1,.706-.746Zm-6.314,0a.747.747,0,0,1,0,1.492.727.727,0,0,1-.7-.749.768.768,0,0,1,.207-.528.687.687,0,0,1,.5-.218ZM10.07,5.257A1.775,1.775,0,0,0,8.249,7.051,1.7,1.7,0,0,0,10.07,8.822a1.8,1.8,0,0,0,1.864-1.771A1.734,1.734,0,0,0,10.07,5.257Zm3.978,0s-1.56-.071-1.56,1.785c0,0-.016,1.724,1.518,1.724a1.222,1.222,0,0,0,.967-.443v.271s.076.852-.7.852h-.265v1.029h.428a1.635,1.635,0,0,0,1.61-1.819V5.365h-1.07v.327a1.176,1.176,0,0,0-.925-.443ZM1.96,3.853V8.711H3.073V8.325a1.037,1.037,0,0,0,.93.5A1.666,1.666,0,0,0,5.555,7.015S5.5,5.243,4,5.243a1.432,1.432,0,0,0-.937.458V3.853Zm3.948-.107V4.87s.5-.022.5.964V8.7H7.477V5.569s.042-1.821-1.569-1.821ZM2.842,0H15.158A2.933,2.933,0,0,1,18,3.015v7.148h0a2.933,2.933,0,0,1-2.838,3.015H10.921L9.477,15.669a.278.278,0,0,1-.05.075.473.473,0,0,1-.841,0,.63.63,0,0,1-.046-.072L7.088,13.178H2.842A2.77,2.77,0,0,1,.83,12.293,3.1,3.1,0,0,1,0,10.163V3.015A2.933,2.933,0,0,1,2.842,0Z" transform="translate(0)"/>
      </g>
    </g>
    <rect id="사각형_1911" data-name="사각형 1911" width="24" height="24" transform="translate(241 4284)" fill="none"/>
  </g>
</svg>
