<svg xmlns="http://www.w3.org/2000/svg" width="24" height="24" viewBox="0 0 24 24">
  <g id="icon-boutonnieres" transform="translate(-175 -779)">
    <rect id="사각형_1872" data-name="사각형 1872" width="24" height="24" transform="translate(175 779)" fill="#fff"/>
    <g id="bouquet" transform="translate(133.694 779)">
      <g id="그룹_1524" data-name="그룹 1524" transform="translate(45.306)">
        <g id="그룹_1523" data-name="그룹 1523">
          <path id="패스_2004" data-name="패스 2004" d="M101.957,3.552l-.442-.039c-.019,0-.372-.032-.9-.036a9.144,9.144,0,0,0,.185-1.613l0-.42-.415.069a11.215,11.215,0,0,0-2.05.583A11.2,11.2,0,0,0,97.15.322L96.88,0l-.27.322a9.141,9.141,0,0,0-.9,1.348c-.408-.342-.7-.548-.712-.559L94.63.854l-.169.411a9.371,9.371,0,0,0-.332,1,9.4,9.4,0,0,0-.332-1L93.627.854l-.362.257c-.015.011-.3.217-.712.559a9.147,9.147,0,0,0-.9-1.348L91.377,0l-.271.322a11.21,11.21,0,0,0-1.183,1.773,11.214,11.214,0,0,0-2.05-.583l-.415-.069,0,.42a9.146,9.146,0,0,0,.185,1.613c-.532,0-.886.035-.9.036l-.442.039.138.422a9.579,9.579,0,0,0,1.7,3.017H87.18L92.133,17.57,90.991,24h6.275l-1.141-6.43,4.952-10.578h-.953a9.579,9.579,0,0,0,1.7-3.017Zm-4.152-.431.144-.077.035-.018.121-.06.043-.021.161-.074h0a10.171,10.171,0,0,1,1.753-.57,8.7,8.7,0,0,1-.18,1.188l-.1,0-.06,0-.188.011h-.019l-.167.013-.058.005-.125.012-.065.007-.117.013-.065.007-.12.015-.055.007-.171.025-.2.034-.05.009-.2.038h-.007l-.183.041-.048.011-.181.046h0l0,0,0,0-.074-.105L97.6,3.642l-.052-.07-.035-.046-.05-.065-.037-.047L97.4,3.376l.1-.07.014-.009.114-.072.038-.023.111-.065Zm-.923-1.992a10.69,10.69,0,0,1,.8,1.255l-.047.024-.026.013q-.083.043-.162.087l-.025.014c-.053.03-.1.06-.155.091l-.019.012c-.052.032-.1.064-.151.1l-.008.005q-.075.05-.145.1l-.007.005,0,0-.011-.012-.148-.157-.024-.025-.131-.133-.056-.055-.106-.1-.062-.06-.11-.1-.04-.037A8.764,8.764,0,0,1,96.882,1.129Zm-1.925.844c.17.135.385.312.62.522l.146.133q.142.13.275.26l.139.138q.194.2.368.389l.006.007.115.131a7.076,7.076,0,0,1,.63.84,3.933,3.933,0,0,1,.406.825,5.057,5.057,0,0,1,.225.915c.014.1.024.207.028.308,0,.046,0,.09,0,.134,0,.013,0,.025,0,.037q0,.049,0,.1c0,.011,0,.023,0,.034,0,.041-.008.081-.013.12l0,.013q-.008.052-.019.1l0,.015h-2.6a4.779,4.779,0,0,1-.59-1.214A6.722,6.722,0,0,1,94.958,1.973Zm-.829,4.348a5.705,5.705,0,0,0,.313.671h-.626A5.676,5.676,0,0,0,94.129,6.321ZM92.68,2.5l0,0c.234-.209.448-.386.618-.52a6.708,6.708,0,0,1,.275,3.805,4.776,4.776,0,0,1-.59,1.214h-2.6l0-.015c-.007-.033-.013-.067-.018-.1l0-.013c-.006-.039-.01-.079-.013-.12,0-.012,0-.024,0-.035q0-.047,0-.1c0-.013,0-.025,0-.038,0-.044,0-.088,0-.133,0-.074.01-.15.018-.226,0-.028.006-.055.009-.083a5.048,5.048,0,0,1,.225-.915A3.932,3.932,0,0,1,91,4.393l.066-.1a6.986,6.986,0,0,1,.43-.578c.044-.053.088-.106.134-.16q.169-.2.36-.394C92.2,2.938,92.432,2.716,92.68,2.5ZM91.375,1.129a8.735,8.735,0,0,1,.634,1.021l-.038.036-.112.106-.06.058-.109.107-.053.053-.132.134-.024.024q-.075.078-.147.156l-.011.012,0,0-.009-.007q-.069-.05-.143-.1l-.009-.006c-.049-.033-.1-.065-.151-.1l-.019-.012q-.076-.046-.155-.091l-.025-.014q-.079-.044-.162-.087l-.026-.013-.047-.024A10.709,10.709,0,0,1,91.375,1.129ZM89.948,2.871l.161.074.043.021.123.061.034.017.145.078.025.015.114.066.036.022.118.075.011.007.1.07-.031.04-.034.043-.053.07-.031.041-.056.076-.025.034-.073.1,0,.006,0,0h0l-.181-.045-.048-.011-.183-.041h-.007l-.2-.038-.05-.009-.2-.034-.171-.025-.055-.007-.12-.015-.064-.008-.117-.013-.065-.007-.126-.012L88.9,3.522l-.169-.013h-.017L88.53,3.5l-.059,0-.1,0a8.746,8.746,0,0,1-.18-1.189A10.151,10.151,0,0,1,89.948,2.871Zm-2.672,1.32c.217-.007.5-.012.811,0a11.561,11.561,0,0,1,1.485.124l.147.024.048.009.1.017.055.011L90,4.39l.057.012.082.018.025.006-.016.033-.042.086-.024.052-.038.084-.022.05c-.013.03-.025.06-.036.09l-.016.042c-.017.043-.032.087-.047.129s-.031.092-.045.137a5.573,5.573,0,0,0-.21.907h0c-.017.126-.029.252-.034.376h0q0,.076,0,.15c0,.018,0,.035,0,.052s0,.063,0,.093,0,.04,0,.06,0,.055.006.081.005.041.008.061.006.051.01.076v.006h-.519A7.5,7.5,0,0,1,87.275,4.191Zm9.147,19.1H91.835L92.8,17.88h.979v2.449h.707V17.88h.979Zm-.892-6.12h-.692l1.035-4.141-.686-.171-1.058,4.235L93.07,12.86l-.686.171,1.035,4.141h-.692L88.292,7.7H99.965ZM99.111,6.992h-.519V6.985c0-.025.007-.051.01-.077s.005-.04.007-.06,0-.057.007-.086,0-.037,0-.056c0-.034,0-.069,0-.1,0-.014,0-.028,0-.042q0-.074,0-.15h0c-.005-.124-.017-.25-.034-.376a5.754,5.754,0,0,0-.255-1.044c-.014-.043-.03-.086-.047-.13l-.016-.041c-.012-.03-.024-.06-.037-.091l-.021-.049L98.173,4.6l-.024-.05-.043-.087-.016-.032.026-.006L98.2,4.4l.057-.012.085-.017.056-.011.1-.017.048-.009.147-.024a11.584,11.584,0,0,1,1.485-.124c.315-.007.594,0,.811,0A7.5,7.5,0,0,1,99.111,6.992Z" transform="translate(-86.3)"/>
        </g>
      </g>
    </g>
  </g>
</svg>
