<svg xmlns="http://www.w3.org/2000/svg" width="24" height="24" viewBox="0 0 24 24">
  <g id="icon-camera" transform="translate(-236 -162)">
    <rect id="사각형_1924" data-name="사각형 1924" width="24" height="24" transform="translate(236 162)" fill="none"/>
    <g id="카메라" transform="translate(239 167)">
      <path id="패스_1470" data-name="패스 1470" d="M17,53.533H13.432l-.772-1.959a.6.6,0,0,0-.56-.375H5.9a.6.6,0,0,0-.56.375l-.772,1.959H1a.988.988,0,0,0-1,.972v9.722A.988.988,0,0,0,1,65.2H17a.988.988,0,0,0,1-.972V54.506A.987.987,0,0,0,17,53.533Zm-.2,10.5H1.2V54.7H4.98a.6.6,0,0,0,.56-.375l.772-1.959h5.375l.772,1.959a.6.6,0,0,0,.56.375H16.8v9.333Z" transform="translate(0 -51.2)" fill="#fff"/>
      <path id="패스_1471" data-name="패스 1471" d="M140.184,156.439a4.1,4.1,0,1,0,4.22,4.1A4.167,4.167,0,0,0,140.184,156.439Zm0,7.039a2.937,2.937,0,1,1,3.02-2.936A2.982,2.982,0,0,1,140.184,163.478Z" transform="translate(-131.184 -152.842)" fill="#fff"/>
    </g>
  </g>
</svg>
