<svg xmlns="http://www.w3.org/2000/svg" width="16" height="14" viewBox="0 0 16 14">
  <g id="Icon-empty-heart" transform="translate(-1.923 -3.269)">
    <g id="Shape" transform="translate(1.923 3.269)" fill="none">
      <path d="M16,4.593a4.618,4.618,0,0,1-1.331,3.248L8.988,13.586a1.386,1.386,0,0,1-1.976,0L1.33,7.841a4.629,4.629,0,0,1,0-6.5,4.506,4.506,0,0,1,6.423,0L8,1.595l.246-.249a4.505,4.505,0,0,1,6.423,0A4.618,4.618,0,0,1,16,4.593Z" stroke="none"/>
      <path d="M 11.45785140991211 2.000000953674316 C 10.78316116333008 2.000000953674316 10.14774131774902 2.266941070556641 9.66832160949707 2.751980781555176 L 7.99981164932251 4.439240455627441 L 6.331192016601562 2.751860618591309 C 5.851971626281738 2.267260551452637 5.216471672058105 2.000380516052246 4.54176139831543 2.000380516052246 C 3.86705207824707 2.000380516052246 3.231561660766602 2.267260551452637 2.752341270446777 2.751860618591309 C 1.748332023620605 3.767160415649414 1.748321533203125 5.419160842895508 2.752341270446777 6.434460639953613 L 7.99981164932251 11.74087429046631 L 13.24761199951172 6.434120655059814 C 13.7257719039917 5.950830459594727 14.00000190734863 5.279820442199707 14.00000190734863 4.593160629272461 C 14.00000190734863 3.906540870666504 13.72575187683105 3.23551082611084 13.24701118469238 2.751590728759766 C 12.76791191101074 2.266921043395996 12.13251113891602 2.000000953674316 11.45785140991211 2.000000953674316 M 11.45785140991211 9.5367431640625e-07 C 12.6624813079834 9.5367431640625e-07 13.81774139404297 0.4840402603149414 14.66937160491943 1.34557056427002 C 15.52134132385254 2.206770896911621 16.00000190734863 3.375000953674316 16.00000190734863 4.593160629272461 C 16.00000190734863 5.811380863189697 15.52129173278809 6.979670524597168 14.66937160491943 7.840750694274902 L 8.987771987915039 13.58617115020752 C 8.442142486572266 14.13794040679932 7.557482719421387 14.13794040679932 7.01185131072998 13.58617115020752 L 1.330251693725586 7.840750694274902 C -0.4434175491333008 6.047160625457764 -0.4434175491333008 3.13917064666748 1.330251693725586 1.34557056427002 C 3.103920936584473 -0.4480199813842773 5.979610443115234 -0.4480209350585938 7.753281593322754 1.34557056427002 L 7.99981164932251 1.594870567321777 L 8.246221542358398 1.345690727233887 C 9.097862243652344 0.4840803146362305 10.25317192077637 9.5367431640625e-07 11.45785140991211 9.5367431640625e-07 Z" stroke="none" fill="#fbb03b"/>
    </g>
  </g>
</svg>
