<svg xmlns="http://www.w3.org/2000/svg" xmlns:xlink="http://www.w3.org/1999/xlink" width="24" height="24" viewBox="0 0 24 24">
  <defs>
    <clipPath id="clip-path">
      <path id="Shape" d="M.351,2.109a1.261,1.261,0,0,1,0-1.747,1.176,1.176,0,0,1,1.7,0l5.6,5.765a1.261,1.261,0,0,1,0,1.747l-5.6,5.765a1.176,1.176,0,0,1-1.7,0,1.261,1.261,0,0,1,0-1.747L5.1,7Z" transform="translate(0 0)" fill="none"/>
    </clipPath>
  </defs>
  <g id="icon-arrow" transform="translate(-328 -180)">
    <rect id="frame" width="24" height="24" transform="translate(328 180)" fill="none"/>
    <g id="그룹_1271" data-name="그룹 1271" transform="translate(336 185)" clip-path="url(#clip-path)">
      <g id="_Color" data-name="↳ 🎨Color" transform="translate(-12.4 -3.706)">
        <rect id="_Color_background" data-name="↳ 🎨Color background" width="20.8" height="21.412" fill="rgba(0,0,0,0)"/>
        <rect id="Color" width="20.8" height="21.412" fill="#cdcdd7"/>
      </g>
    </g>
  </g>
</svg>
