<svg xmlns="http://www.w3.org/2000/svg" width="12" height="10" viewBox="0 0 12 10">
  <g id="Shape" fill="none">
    <path d="M12,3.281A3.22,3.22,0,0,1,11,5.6L6.741,9.7a1.077,1.077,0,0,1-1.482,0L1,5.6A3.2,3.2,0,0,1,1,.961a3.5,3.5,0,0,1,4.817,0L6,1.139,6.185.961A3.5,3.5,0,0,1,11,.961,3.22,3.22,0,0,1,12,3.281Z" stroke="none"/>
    <path d="M 8.593388557434082 1.999997615814209 C 8.209299087524414 1.999997615814209 7.837158679962158 2.146317481994629 7.572048664093018 2.401747226715088 L 5.999888896942139 3.915897369384766 L 4.427588939666748 2.401687622070312 C 4.158808708190918 2.14282751083374 3.796108722686768 2.000267505645752 3.406318664550781 2.000267505645752 C 3.016529083251953 2.000267505645752 2.653839111328125 2.14282751083374 2.385058403015137 2.40167760848999 C 2.136748313903809 2.640827655792236 1.999999046325684 2.953047275543213 1.999999046325684 3.280827522277832 C 1.999999046325684 3.608617305755615 2.136748313903809 3.92083740234375 2.385058403015137 4.159977436065674 L 5.999858856201172 7.641314506530762 L 9.614998817443848 4.15965747833252 C 9.863268852233887 3.920657634735107 9.999999046325684 3.608557224273682 9.999999046325684 3.280827522277832 C 9.999999046325684 2.953127384185791 9.863248825073242 2.641007423400879 9.614358901977539 2.401397228240967 C 9.34959888458252 2.146307468414307 8.977468490600586 1.999997615814209 8.593388557434082 1.999997615814209 M 8.593388557434082 -2.86102294921875e-06 C 9.496869087219238 -2.86102294921875e-06 10.36330890655518 0.3457374572753906 11.002028465271 0.9611272811889648 C 11.64099884033203 1.576267242431641 11.99999904632568 2.410717487335205 11.99999904632568 3.280827522277832 C 11.99999904632568 4.15098762512207 11.64096832275391 4.985477447509766 11.002028465271 5.600537300109863 L 6.740828990936279 9.704407691955566 C 6.331608295440674 10.0985279083252 5.668118953704834 10.09852695465088 5.258888721466064 9.704407691955566 L 0.9976892471313477 5.600537300109863 C -0.3325614929199219 4.319397449493408 -0.3325614929199219 2.242267608642578 0.9976892471313477 0.9611272811889648 C 2.327939033508301 -0.3200130462646484 4.484708786010742 -0.320012092590332 5.814958572387695 0.9611272811889648 L 5.999858856201172 1.13919734954834 L 6.18466854095459 0.961207389831543 C 6.823398590087891 0.3457775115966797 7.689878463745117 -2.86102294921875e-06 8.593388557434082 -2.86102294921875e-06 Z" stroke="none" fill="#fbb03b"/>
  </g>
</svg>
