<svg xmlns="http://www.w3.org/2000/svg" xmlns:xlink="http://www.w3.org/1999/xlink" width="96" height="96" viewBox="0 0 96 96">
  <defs>
    <clipPath id="clip-path">
      <rect id="사각형_159" data-name="사각형 159" width="83" height="70" fill="none"/>
    </clipPath>
  </defs>
  <g id="icon-안전보건_목표" data-name="icon-안전보건 목표" transform="translate(7 13)">
    <g id="그룹_215" data-name="그룹 215" transform="translate(0 0)" clip-path="url(#clip-path)">
      <path id="패스_564" data-name="패스 564" d="M60.688,46.974c-3.4,2.18-10.933,3.587-19.188,3.587s-15.789-1.407-19.188-3.587a1.5,1.5,0,1,0-1.624,2.514C24.6,51.994,32.574,53.551,41.5,53.551s16.9-1.557,20.811-4.062a1.5,1.5,0,1,0-1.623-2.514" transform="translate(0 -0.159)" fill="#f15a22"/>
      <path id="패스_565" data-name="패스 565" d="M81.8,48.312,77.04,42.885c.077-.956.127-1.915.127-2.875a35.368,35.368,0,0,0-25.229-34,1.492,1.492,0,0,0-.566-.058,11.512,11.512,0,0,0-20.179.032c-.044.01-.088.013-.131.026a35.369,35.369,0,0,0-25.229,34,28.888,28.888,0,0,0,.214,3.607L1.2,49.141A4.8,4.8,0,0,0,0,52.313V56.6a4.819,4.819,0,0,0,3.969,4.739l5.91,1.071a1.875,1.875,0,0,1,.471.153l9.54,6.766a1.616,1.616,0,0,0,.159.1A4.876,4.876,0,0,0,22.341,70H60.615a4.865,4.865,0,0,0,2.4-.632c.05-.029.1-.06.143-.093L73.5,61.732a1.8,1.8,0,0,1,.486-.171l5.123-1.022A4.833,4.833,0,0,0,83,55.816V51.483a4.8,4.8,0,0,0-1.2-3.171m-1.8,7.5a1.834,1.834,0,0,1-1.474,1.792L73.4,58.629a4.824,4.824,0,0,0-1.451.542,1.345,1.345,0,0,0-.14.091L61.462,66.8a1.845,1.845,0,0,1-.847.206H22.341a1.856,1.856,0,0,1-.8-.181L12,60.063q-.078-.054-.159-.1a4.868,4.868,0,0,0-1.427-.5L4.506,58.4A1.828,1.828,0,0,1,3,56.6V52.313a1.825,1.825,0,0,1,.454-1.2l3.3-3.755a1.489,1.489,0,0,0,1.415,1.053,1.444,1.444,0,0,0,.33-.037A1.493,1.493,0,0,0,9.63,46.585a27.206,27.206,0,0,1-.8-6.576A32.349,32.349,0,0,1,20,15.465v17.9a1.5,1.5,0,0,0,3,0V13.434a1.478,1.478,0,0,0-.026-.259,32.849,32.849,0,0,1,6.99-3.616,11.357,11.357,0,0,0-.172,1.9V33.054a1.5,1.5,0,0,0,3,0V11.461a8.5,8.5,0,0,1,17,0V33.054a1.5,1.5,0,0,0,3,0V11.461a11.318,11.318,0,0,0-.2-2.055A32.875,32.875,0,0,1,60,13.158V32.535a1.5,1.5,0,0,0,3,0V15.465A32.345,32.345,0,0,1,74.167,40.009a32.762,32.762,0,0,1-.672,6.6,1.494,1.494,0,0,0,1.166,1.765,1.453,1.453,0,0,0,.305.031,1.5,1.5,0,0,0,1.467-1.193c.027-.133.046-.267.072-.4l3.042,3.465a1.824,1.824,0,0,1,.453,1.2Z" transform="translate(0 0)" fill="#fff"/>
    </g>
    <rect id="사각형_198" data-name="사각형 198" width="96" height="96" transform="translate(-7 -13)" fill="none"/>
  </g>
</svg>
