<svg xmlns="http://www.w3.org/2000/svg" xmlns:xlink="http://www.w3.org/1999/xlink" width="96" height="96" viewBox="0 0 96 96">
  <defs>
    <clipPath id="clip-path">
      <rect id="사각형_163" data-name="사각형 163" width="92" height="72" fill="#333"/>
    </clipPath>
  </defs>
  <g id="icon-안전관리프로세스" transform="translate(2 13)">
    <g id="그룹_223" data-name="그룹 223" transform="translate(0 0)" clip-path="url(#clip-path)">
      <path id="패스_578" data-name="패스 578" d="M57.894,38.4l-5.61-2.863q-.212-.6-.454-1.2l2.133-6.57a2.511,2.511,0,0,0-.614-2.553L48.623,20.5a2.507,2.507,0,0,0-2.554-.614l-6.005,1.95c-.377-.182-.759-.355-1.145-.517l-3.141-6.165a2.5,2.5,0,0,0-2.24-1.374H26.857a2.507,2.507,0,0,0-2.24,1.373l-2.86,5.613c-.4.139-.8.291-1.2.453l-6.567-2.134a2.5,2.5,0,0,0-2.553.614L6.717,24.424A2.5,2.5,0,0,0,6.1,26.977l1.949,6.008q-.273.563-.516,1.143L1.372,37.273A2.5,2.5,0,0,0,0,39.514V46.2a2.5,2.5,0,0,0,1.371,2.24L6.982,51.3q.212.6.454,1.2L5.305,59.062a2.5,2.5,0,0,0,.613,2.555l4.726,4.727a2.5,2.5,0,0,0,2.551.612l6.006-1.95q.563.273,1.144.518l3.143,6.166a2.5,2.5,0,0,0,2.239,1.372h6.682a2.5,2.5,0,0,0,2.238-1.373l2.862-5.612q.6-.212,1.2-.453l6.567,2.134a2.514,2.514,0,0,0,2.553-.615l4.726-4.727a2.51,2.51,0,0,0,.612-2.553l-1.95-6.007c.183-.377.354-.76.517-1.145l6.164-3.143a2.505,2.505,0,0,0,1.373-2.241V40.644a2.5,2.5,0,0,0-1.372-2.24m-1.4,8.767-6.118,3.12a2.5,2.5,0,0,0-1.171,1.273c-.164.394-.341.784-.528,1.167a2.505,2.505,0,0,0-.137,1.873l1.937,5.966-4.5,4.5-6.519-2.117a2.5,2.5,0,0,0-1.727.073c-.4.165-.807.319-1.218.461a2.484,2.484,0,0,0-1.42,1.227l-2.842,5.574H25.882l-3.118-6.119A2.506,2.506,0,0,0,21.495,63q-.594-.248-1.17-.529a2.493,2.493,0,0,0-1.872-.136l-5.965,1.936-4.5-4.506L10.1,53.25a2.515,2.515,0,0,0-.073-1.728q-.249-.6-.462-1.219a2.5,2.5,0,0,0-1.226-1.42L2.768,46.04V39.67l6.117-3.12a2.5,2.5,0,0,0,1.171-1.27c.165-.395.34-.784.528-1.169a2.494,2.494,0,0,0,.137-1.873L8.784,26.271l4.5-4.506,6.518,2.118a2.508,2.508,0,0,0,1.728-.073c.4-.166.8-.319,1.222-.462a2.5,2.5,0,0,0,1.415-1.227l2.841-5.574h6.37L36.5,22.67a2.5,2.5,0,0,0,1.27,1.168q.592.246,1.166.527a2.5,2.5,0,0,0,1.873.137l5.964-1.937,4.505,4.506-2.116,6.52a2.5,2.5,0,0,0,.072,1.728q.249.6.461,1.219a2.49,2.49,0,0,0,1.227,1.42L56.5,40.8Z" transform="translate(0 -1.062)" fill="#fff"/>
      <path id="패스_579" data-name="패스 579" d="M31.054,32.15A12.687,12.687,0,1,0,43.738,44.838,12.7,12.7,0,0,0,31.054,32.15m0,22.606a9.919,9.919,0,1,1,9.916-9.918,9.928,9.928,0,0,1-9.916,9.918" transform="translate(-1.422 -2.479)" fill="#fff"/>
      <path id="패스_580" data-name="패스 580" d="M95.517,14.836l-3.179-1.622c-.041-.11-.082-.221-.125-.33l1.221-3.763a2.057,2.057,0,0,0-.5-2.092L90.094,4.194a2.042,2.042,0,0,0-2.1-.5l-3.383,1.1c-.112-.052-.224-.1-.337-.151l-1.79-3.511A2.051,2.051,0,0,0,80.652,0H76.643a2.055,2.055,0,0,0-1.837,1.125L73.185,4.306c-.111.041-.221.082-.331.125L69.1,3.21a2.043,2.043,0,0,0-2.093.5L64.167,6.549a2.058,2.058,0,0,0-.5,2.1l1.1,3.384c-.052.112-.1.224-.151.337L61.1,14.158A2.057,2.057,0,0,0,59.975,16V20A2.058,2.058,0,0,0,61.1,21.842l3.178,1.621c.041.112.082.221.125.331l-1.221,3.761a2.058,2.058,0,0,0,.5,2.094l2.834,2.835a2.053,2.053,0,0,0,2.094.5L72,31.888c.112.052.223.1.337.151l1.788,3.508a2.051,2.051,0,0,0,1.839,1.131h4.009a2.056,2.056,0,0,0,1.838-1.126l1.619-3.179c.111-.041.221-.082.331-.126l3.76,1.22a2.053,2.053,0,0,0,2.093-.5l2.837-2.837a2.056,2.056,0,0,0,.5-2.092l-1.1-3.386c.051-.112.1-.224.151-.337l3.509-1.79a2.053,2.053,0,0,0,1.127-1.837v-4.01a2.05,2.05,0,0,0-1.125-1.837M93.874,20.25l-3.4,1.733a1.94,1.94,0,0,0-.911.991q-.155.382-.337.749a1.934,1.934,0,0,0-.109,1.462l1.068,3.291L87.963,30.7l-3.631-1.179a1.919,1.919,0,0,0-1.349.054c-.25.105-.5.2-.76.288a1.939,1.939,0,0,0-1.107.955l-1.574,3.091H76.4l-1.731-3.4a1.937,1.937,0,0,0-.994-.915c-.253-.1-.5-.217-.757-.341a1.94,1.94,0,0,0-1.454-.105l-3.289,1.069L65.95,28l1.179-3.632a1.942,1.942,0,0,0-.054-1.349q-.156-.377-.287-.76a1.932,1.932,0,0,0-.955-1.107l-3.09-1.576V16.427l3.4-1.733a1.946,1.946,0,0,0,.912-.991c.1-.254.216-.506.337-.749a1.937,1.937,0,0,0,.109-1.463L66.43,8.2l2.223-2.224,3.639,1.182A1.935,1.935,0,0,0,73.636,7.1c.25-.1.5-.2.757-.286A1.934,1.934,0,0,0,75.5,5.859l1.576-3.091h3.142l1.735,3.4a1.945,1.945,0,0,0,.989.908c.256.1.507.218.749.337a1.936,1.936,0,0,0,1.461.109l3.29-1.068,2.223,2.223-1.178,3.632a1.931,1.931,0,0,0,.054,1.349c.1.252.2.506.287.762a1.926,1.926,0,0,0,.954,1.106l3.091,1.576Z" transform="translate(-4.641 0)" fill="#f15a22"/>
      <path id="패스_581" data-name="패스 581" d="M74.282,14.309a7.034,7.034,0,1,0,9.947,0,7.044,7.044,0,0,0-9.947,0m7.99,7.992a4.265,4.265,0,1,1,0-6.035,4.27,4.27,0,0,1,0,6.035" transform="translate(-5.589 -0.944)" fill="#f15a22"/>
    </g>
    <rect id="사각형_197" data-name="사각형 197" width="96" height="96" transform="translate(-2 -13)" fill="none"/>
  </g>
</svg>
