<svg xmlns="http://www.w3.org/2000/svg" xmlns:xlink="http://www.w3.org/1999/xlink" width="96" height="96" viewBox="0 0 96 96">
  <defs>
    <clipPath id="clip-path">
      <rect id="사각형_156" data-name="사각형 156" width="82" height="82" fill="none"/>
    </clipPath>
  </defs>
  <g id="icon-안전보건경영방침" transform="translate(8 5)">
    <g id="마스크_그룹_213" data-name="마스크 그룹 213" transform="translate(-1 2)" clip-path="url(#clip-path)">
      <path id="패스_556" data-name="패스 556" d="M8.973,31.964H44.326a1.482,1.482,0,0,0,0-2.964H8.973a1.482,1.482,0,0,0,0,2.964" transform="translate(-0.135 -0.349)" fill="#fff"/>
      <path id="패스_557" data-name="패스 557" d="M36.614,40H16.973a1.482,1.482,0,0,0,0,2.964H36.614a1.482,1.482,0,0,0,0-2.964" transform="translate(-0.278 -0.482)" fill="#fff"/>
      <path id="패스_558" data-name="패스 558" d="M30.722,51H16.973a1.482,1.482,0,0,0,0,2.964H30.722a1.482,1.482,0,0,0,0-2.964" transform="translate(-0.278 -0.614)" fill="#fff"/>
      <path id="패스_559" data-name="패스 559" d="M12.9,21.867H44.326a5.434,5.434,0,0,0,0-10.867H12.9a5.434,5.434,0,0,0,0,10.867m0-7.9H44.326a2.47,2.47,0,0,1,0,4.94H12.9a2.47,2.47,0,0,1,0-4.94" transform="translate(-0.135 -0.133)" fill="#fff"/>
      <path id="패스_560" data-name="패스 560" d="M56.958,56.9,58.2,55.653l1.822,1.833-.173.174a3.476,3.476,0,0,0,0,4.89l.693.7a3.428,3.428,0,0,0,4.861,0L76.512,52.074a3.476,3.476,0,0,0,0-4.89l-.693-.7a3.425,3.425,0,0,0-4.86,0l-.174.174L57.248,33.04l.173-.173a3.477,3.477,0,0,0,0-4.891l-.463-.464V7.41A7.4,7.4,0,0,0,49.593,0H7.365A7.4,7.4,0,0,0,0,7.41v57.3a7.4,7.4,0,0,0,7.365,7.41h18.81A7.7,7.7,0,0,0,28.089,76,7.478,7.478,0,0,0,31.9,77.921a6.723,6.723,0,0,0,1.235.121,4.313,4.313,0,0,0,3.16-1.221l4.265-4.7h9.036a7.4,7.4,0,0,0,7.365-7.41Zm-2.228-1.95L49,49.192l1.389-1.4,5.727,5.762Zm18.312-6.372a.495.495,0,0,1,.694,0l.693.7a.505.505,0,0,1,0,.7L63.322,61.152a.495.495,0,0,1-.694,0l-.693-.7a.5.5,0,0,1,0-.7l.173-.173L72.868,48.756Zm-4.34.175-6.6,6.634-3.555-3.576,0,0-6.423-6.461h0L48.57,41.771l6.6-6.635ZM44.4,41.771l-.174.175a.495.495,0,0,1-.694,0l-.693-.7a.5.5,0,0,1,0-.7L53.95,29.374a.5.5,0,0,1,.694,0l.693.7a.505.505,0,0,1,0,.7l-.173.174ZM27.221,67.787a3.809,3.809,0,0,0-.865,1.369H7.365a4.438,4.438,0,0,1-4.419-4.446V7.41A4.438,4.438,0,0,1,7.365,2.964H49.593A4.438,4.438,0,0,1,54.012,7.41V26.294a3.4,3.4,0,0,0-2.146.984L40.759,38.453a3.476,3.476,0,0,0,0,4.89l.693.7a3.424,3.424,0,0,0,4.86,0l.174-.175L48.308,45.7l-1.735,1.746a2.478,2.478,0,0,0-.4,2.935Zm6.942,6.986c-.672.676-2.947.176-3.991-.873a4.638,4.638,0,0,1-1.1-2.28,2.169,2.169,0,0,1,.186-1.69l18.92-17.378,3.216,3.236Zm15.43-5.617H43.247l10.3-11.352a2.33,2.33,0,0,0,.463.2v6.708a4.438,4.438,0,0,1-4.419,4.446" fill="#fff"/>
      <path id="패스_561" data-name="패스 561" d="M8.973,40a1.482,1.482,0,1,0,1.473,1.482A1.478,1.478,0,0,0,8.973,40" transform="translate(-0.135 -0.482)" fill="#fff"/>
      <path id="패스_562" data-name="패스 562" d="M8.973,51a1.482,1.482,0,1,0,1.473,1.482A1.478,1.478,0,0,0,8.973,51" transform="translate(-0.135 -0.614)" fill="#fff"/>
      <path id="패스_563" data-name="패스 563" d="M77.614,74H61.9a5.425,5.425,0,0,0-5.4,5.434v3.458H83.015V79.434A5.425,5.425,0,0,0,77.614,74m2.455,5.928H59.446v-.494a2.465,2.465,0,0,1,2.455-2.47H77.614a2.465,2.465,0,0,1,2.455,2.47Z" transform="translate(-1.015 -0.892)" fill="#f15a22"/>
    </g>
    <rect id="사각형_199" data-name="사각형 199" width="96" height="96" transform="translate(-8 -5)" fill="none"/>
  </g>
</svg>
